<svg xmlns="http://www.w3.org/2000/svg" id="OBJECTS" viewBox="0 0 750 500"><defs><style>      .cls-1 {        fill: #ce7602;      }      .cls-2 {        fill: #fff;      }      .cls-3 {        fill: #2f4a7f;      }      .cls-4 {        fill: #476b9e;      }      .cls-5 {        fill: #d9ebff;      }      .cls-6 {        fill: #efac37;      }      .cls-7 {        fill: #7db6f9;      }      .cls-8 {        fill: #e8615b;      }      .cls-9 {        fill: #162e4c;      }    </style></defs><g><path class="cls-7" d="m641.87,443.72c.42-1.39.87-2.76,1.27-4.17,8.48-29.69,11.96-60.71,10.67-91.5-3.67-86.89-45.11-175.05-118.04-227.64-86.19-62.16-211.35-63.42-302.45-12.06-116.91,65.91-166.78,213.97-131.17,335.37h539.72Z"></path><g><path class="cls-4" d="m225.84,217.35c.34,2.37,1.16,4.64,1.86,6.92.35,1.16.65,2.53-.09,3.49-.19.25-.44.45-.63.7-1.08,1.4.04,3.44,1.4,4.58,1.35,1.14,3.07,2.15,3.46,3.88.21.93-.02,1.9-.1,2.85-.24,2.82.88,5.62,2.54,7.91,1.66,2.29,3.84,4.15,5.99,5.98,1.03-.75,1.45-2.12,1.37-3.4-.07-1.27-.56-2.48-1.02-3.66-3.17-8.12-5.61-16.53-7.28-25.1-.68-3.51-1.21-7.26.15-10.56.31-.75.95-1.58,1.74-1.4.3.07.55.27.75.5.61.7.85,1.65,1.06,2.56.42,1.76.84,3.53,1.27,5.29.45,1.89.91,3.78,1.16,5.71.2,1.5.29,3.02.65,4.49.64,2.62,2.11,4.94,3.56,7.21,2.1,3.3,4.21,6.59,6.31,9.89,2.27,3.56,4.58,7.19,5.66,11.27.94,3.56.9,7.38-.12,10.93-1.2,4.16.31,8.49,3.2,11.72,2.89,3.23,6.86,5.24,10.74,7.17,6.87,3.42,13.74,6.83,20.6,10.25,1.06.53,2.14,1.06,3.3,1.25,3.35.55,6.53-1.8,9.92-1.95,3.85-.18,7.24,2.45,9.85,5.29,2.61,2.83,4.94,6.09,8.34,7.89,4.01,2.12,8.81,1.86,13.28,2.68,5.03.92,10.15,3.71,11.95,8.49.25.67.46,1.4,1,1.88,1.07.94,2.7.36,4.12.16,1.41-.19,3.34.87,2.73,2.15-.76,1.6-2.64,1.37-3.83,2.69-1.31,1.45-.68,3.9.73,5.25.82.79,1.86,1.35,2.97,1.59.87.19,1.77.2,2.64.42,4.65,1.21,6.2,8.06,10.93,8.92,1.03.19,2.12.05,3.12.37,1.26.41,2.18,1.47,3.22,2.31,1.52,1.22,3.41,1.98,5.35,2.15.34.03.74.02.96-.24.18-.22.18-.53.17-.81-.07-2.26.36-4.69,1.94-6.32,1.69-1.73,4.57-2.14,6.67-.95,1.63.93,2.74,2.9,2.25,4.71-.16.61-.5,1.17-.61,1.79-.41,2.13,1.66,3.83,2.59,5.78.58,1.22.73,2.6.82,3.95.32,4.56.18,9.15-.43,13.68-.13.99-.31,2.04-.97,2.8-.51.59-1.25.93-1.94,1.29-2.93,1.54-5.44,3.87-7.19,6.68-2.18,3.49-5,6.56-6.2,10.49-1.2,3.93-1.03,8.51,1.45,11.79.46.6,1.01,1.23,1.01,1.98,0,.59-.34,1.13-.69,1.6-2.17,2.95-5.37,5.68-5.32,9.34.02,1.14.37,2.26.8,3.32,1.09,2.69,2.71,5.16,4.73,7.24,1.99,2.05,4.39,3.73,6.04,6.06,1.31,1.86,2.09,4.03,2.85,6.17.62,1.76,1.25,3.53,1.87,5.29h176.31c.1-.18.18-.38.29-.56,1.26-2.08,2.99-3.83,4.59-5.67,6.12-7.02,10.46-15.59,12.49-24.69.56-2.5.95-5.07.75-7.63-.05-.66-.19-1.4-.75-1.75-.59-.37-1.35-.13-2.04-.09-1.65.09-3.12-1.06-4.15-2.35s-1.8-2.8-3.01-3.93c-4.46-4.19-12.31-1.45-17.36-4.9-3.23-2.21-7.6-3.28-10.86-5.47-1.08-.73-2.14-1.53-3.38-1.95-1.69-.58-3.52-.41-5.3-.52-1.78-.12-3.72-.65-4.69-2.14-.79-1.22-.75-2.77-.82-4.22-.26-5.29-2.35-10.29-4.4-15.17-1.15-2.74-2.46-5.65-5.01-7.18-1.34-.8-2.9-1.14-4.44-1.4-5.34-.91-10.8-1.12-16.19-.61-1.37.13-2.76.3-4.09-.04-1.21-.31-2.28-1.03-3.29-1.75-2.44-1.73-4.78-3.59-7.03-5.56-2.06-1.81-3.87-4.55-5.45-6.79-.9-1.28-1.74-2.61-2.84-3.72-4.17-4.22-10.83-4.24-16.76-4.42-4.83-.15-9.66-.6-14.43-1.34-.96-.15-1.92-.31-2.82-.67-2.38-.96-4.11-3.24-6.6-3.88-2.19-.56-4.68.42-5.91,2.32-1.42,2.2-1.4,5.54-3.74,6.7-2.01.99-4.66-.74-4.94-2.97-.21-1.67.61-3.3.7-4.99.09-1.68-1.23-3.73-2.84-3.23-.92.28-1.41,1.25-2.1,1.92-2.72,2.63-7.91.34-10.68,2.92-.85.8-1.29,1.92-1.82,2.96-1.57,3.1-4.06,5.61-6.51,8.08-.29.29-.59.58-.97.7-.43.13-.9,0-1.33-.13-1.74-.58-3.35-1.53-4.7-2.77-2.69-2.48-6.81-2.74-10.44-2.37-1.82.19-3.67.57-5.17,1.6-.62.43-1.17.96-1.82,1.34-1.11.65-2.44.84-3.72.77-3.72-.21-7.15-2.51-9.16-5.65-.51-.79-.94-1.65-1.1-2.58-.2-1.15.04-2.32.16-3.48.44-4.14-.53-8.33-.13-12.47.32-3.24,1.46-6.61.31-9.65-1.04-2.78-3.84-4.61-6.73-5.29-2.89-.68-5.91-.4-8.87-.1-2.96.29-5.98.59-8.87-.07-.65-.15-1.31-.36-1.79-.82-.48-.46-.7-1.24-.35-1.81-.42-1.99,1.01-3.72,2.27-5.31,2.33-2.94,3.85-6.51,4.35-10.23.2-1.48.25-3.02.86-4.38.54-1.21,1.5-2.21,2.04-3.42.75-1.68.61-3.72-.36-5.27-.24-.38-.53-.74-.91-.98-.47-.3-1.04-.39-1.6-.44-1.89-.15-3.81.18-5.54.97-1.09.5-2.13,1.17-3.3,1.42-.57.12-1.16.14-1.72.31-1.89.58-2.8,2.74-3.07,4.7-.27,1.96-.16,4.04-1.05,5.8-.84,1.66-2.47,2.81-4.22,3.45-1.75.64-3.62.84-5.47,1.03-3.96.41-7.83.18-11.81.28-.8.02-1.62.03-2.38-.23-.91-.31-1.63-.99-2.33-1.64-2.21-2.08-4.5-4.28-5.44-7.16-.4-1.22-.53-2.5-.66-3.78-.59-6.1-.95-12.24-.61-18.37,3.13-3.64,2.14-9.58,3.65-14.14,2.01-6.06,7.37-10.73,13.48-12.53,2.78-.82,5.71-1.1,8.59-.83,5.95.57,11.53,3.47,17.5,3.79-.36-1.24-.72-2.48-1.08-3.72-.08-.29-.17-.6-.1-.89.15-.69.97-.95,1.66-1.08,3.89-.7,7.86-.77,11.8-.84,1.17-.02,2.4-.02,3.41.56.84.49,1.42,1.34,2.24,1.88,2.37,1.58,5.72.09,8.32,1.23,1.12.49,1.98,1.43,2.63,2.46,2.93,4.68,1.68,11,4.26,15.88,1.47,2.79,4.04,4.8,6.53,6.73.2.15.41.31.65.35.34.05.67-.15.95-.36,2.35-1.86,2.81-5.23,2.6-8.22-.14-1.96-.48-3.91-1.03-5.79-.95-3.26-2.48-6.32-3.52-9.56-1.03-3.24-1.54-6.8-.4-10,2.32-1.8,4.42-3.69,6.74-5.49,2.21-1.72,4.42-3.44,6.83-4.86,3.45-2.05,7.24-3.45,10.75-5.4.78-.43,1.62-.99,1.8-1.86.19-.91-.4-1.78-.87-2.59-.8-1.38-1.31-2.92-1.49-4.5-.06-.52-.08-1.06.11-1.55.21-.56.67-.98,1.08-1.41,1.64-1.73,2.72-3.98,3.06-6.34.16-1.15.17-2.37.78-3.35.61-.97,1.69-1.53,2.72-2.03,2.94-1.45,5.97-2.91,9.23-3.22.75-.07,1.3-.74,1.19-1.49-.1-.74-.49-1.42-.63-2.16-.24-1.31.36-2.65,1.26-3.62.9-.97,2.08-1.64,3.24-2.29,3.1-1.75,6.2-3.49,9.3-5.24,1.32-.74,2.75-1.51,4.26-1.35.17,1.03-.55,1.96-1.14,2.83-.59.86-1.07,2.05-.46,2.9.55.77,1.69.8,2.62.58,2.94-.68,5.24-2.89,7.95-4.22,1.64-.8,3.42-1.27,5.19-1.7.69-.17,1.4-.34,2-.74.59-.4,1.05-1.08.98-1.79-.11-1.1-1.41-1.71-2.51-1.64-1.1.08-2.12.6-3.21.81-1.42.28-2.89,0-4.31-.28-2.15-.42-4.36-.86-6.19-2.04-.66-.43-1.28-.96-1.66-1.65-1.34-2.42.61-5.72-.79-8.11-.71-1.2-2.24-1.85-3.59-1.51-.67.17-1.29.55-1.98.59-.69.04-1.49-.5-1.35-1.18.12-.54.74-.79,1.28-.92,5.48-1.32,11.36.12,16.81-1.32,1.05-.28,1.8-1.19,2.7-1.79,1.05-.71,2.55-1.39,3.44-.5.61.6.53,1.59.41,2.44-.29,1.98-.57,3.96-.86,5.95-.12.82-.23,1.69.1,2.45.37.86,1.24,1.41,2.12,1.72,2.98,1.04,6.3-.04,9.4.58,2.37.47,4.44,1.91,6.74,2.66,1.09.36,2.48.48,3.21-.41.4-.49.48-1.19.39-1.82-.21-1.51-1.26-2.81-2.53-3.67-1.26-.86-2.74-1.35-4.19-1.83-1.89-.62-3.77-1.24-5.66-1.87-.37-.12-.74-.25-1.04-.48-.37-.29-.6-.73-.81-1.15-.89-1.73-1.78-3.46-2.66-5.19-.6-1.16-1.21-2.35-2.1-3.31-1.09-1.18-2.54-1.95-3.95-2.71-1.51-.8-3.02-1.61-4.53-2.41-1.79-.95-3.66-1.97-4.76-3.68-5.03-1.35-9.43-4.32-13.44-7.65-1.86-1.55-3.57-3.28-5.35-4.93-.93-.86-2.21-1.75-3.35-1.19-.51.25-.84.74-1.25,1.13-1.32,1.28-3.39,1.48-5.17,1.02-1.78-.46-3.35-1.49-4.92-2.44-4.36-2.63-9.02-4.76-13.85-6.33-1.05-.34-2.15-.66-3.23-.48-1.59.26-2.85,1.56-3.5,3.04-.65,1.47-.79,3.11-.93,4.71-.05.56-.09,1.14.02,1.69.18.89.76,1.65,1.37,2.33,1.02,1.14,2.21,2.21,2.81,3.62.6,1.41.37,3.34-.97,4.09-.65.37-1.44.39-2.16.61-1.52.45-2.71,1.84-2.92,3.41-.23,1.7.57,3.54-.17,5.09-.8,1.66-3.45,1.98-4.62.56-.41-.5-.63-1.12-.97-1.67-1.31-2.12-4.35-3.26-4.54-5.74-.04-.55.07-1.14-.16-1.64-.33-.7-1.18-.95-1.93-1.07-3-.49-6.08-.18-9.11-.49-4.25-.44-8.35-2.14-11.67-4.83-.61-.5-1.22-1.04-1.96-1.3-.64-.23-1.34-.23-2.02-.18-3.71.28-7.27,2.21-9.53,5.18-.72.95-1.41,2.06-2.55,2.41-1.14.35-2.65-.86-2.03-1.87,2.58-2.06,5.44-3.75,8.48-5.02,1.04-.43,2.22-.94,2.56-2.01.36-1.11-.38-2.28-1.26-3.04-.88-.76-1.96-1.32-2.64-2.27-.68-.94-.76-2.49.23-3.1,3.66-2.25,5.8-5.92,10.03-6.72,4.22-.79,8.55-.7,12.85-.59.72.02,1.49.03,2.11-.34.53-.32.88-.86,1.26-1.34,1.6-2.01,4.21-3.18,6.77-3.04,1.23-1.31.07-3.92,1.51-5,.51-.38,1.18-.41,1.81-.43,5.66-.18,11.83-.13,16.3,3.35.37.29.76.66.76,1.14,0,.54-.5.93-.76,1.41-.74,1.35.54,2.91,1.76,3.85,5.9,4.57,13.21,7.3,20.66,7.73-.17-1.45-1.41-2.57-2.77-3.1-1.36-.53-2.84-.6-4.29-.77-.54-.06-1.1-.15-1.58-.41-1.71-.93-1.56-3.4-1.18-5.31,1.95-.35,3.97-.32,5.9.11.59-2.38-1.66-4.55-3.95-5.42-2.29-.86-4.88-1.04-6.91-2.41-.91-.61-1.67-1.44-2.61-2.01-1.99-1.2-4.46-1.07-6.78-1.1-3.69-.05-7.38-.59-10.93-1.63-1.55-.45-3.08-1-4.65-1.39-3.4-.84-6.97-.94-10.41-.3-.88.17-1.78.39-2.52.9-.6.41-1.07.97-1.63,1.42-1.83,1.45-4.4,1.48-6.7,1.08-2.3-.4-4.57-1.15-6.9-1.04-2.72.14-5.36,1.55-6.98,3.74-.42.56-.78,1.18-1.35,1.59-1.05.75-2.46.57-3.73.4-4.46-.6-8.98-.69-13.46-.28-3.3.3-6.99.78-9.6-1.27-.06-1.52-1.52-2.68-3.01-2.97-1.49-.29-3.02.08-4.52.37-4.04.79-8.19,1.06-12.3.79-1.87-.12-4.08-.99-4.49-2.82-13.75,4.12-27.52,9.31-41.03,15.97,2.5,1.87,3.79,6.26,3.67,9.38s-1.25,6.1-2.36,9.02c-1.87,4.92-3.74,9.84-5.61,14.77-2.02,5.32-4.09,10.72-7.54,15.24-1.82,2.39-3.99,4.49-5.77,6.9-1.68,2.29-2.99,4.83-4.29,7.36-2.5,4.86-5.03,9.85-5.72,15.27-.96,7.59,1.78,15.1,4.48,22.26,2.04,5.42-.08,10.88.73,16.61Z"></path><path class="cls-4" d="m411.04,276.67c.07-.45-.22-.86-.51-1.21-1.23-1.42-2.93-2.43-4.77-2.81-1.29-.27-2.66-.25-3.89-.73-1.06-.42-1.93-1.18-2.83-1.87-3.46-2.7-7.51-4.63-11.78-5.64-1.05-.25-2.11-.44-3.11-.85-1.57-.65-2.88-1.83-4.43-2.54-1.97-.91-4.21-1.02-6.39-1.04-1.77-.02-3.54.01-5.31.09-1.24.06-2.51.14-3.63.66-1.46.66-2.51,1.96-3.51,3.21-.38.48-.77.96-1.15,1.44-.24.31-.49.76-.24,1.05.16.18.43.2.67.19,2.14-.08,4.18-.54,6.36-.55.33,0,.68,0,.96.18.29.18.44.5.66.76.42.49,1.06.73,1.68.89,5.11,1.29,10.95-1.5,15.61.96.64.34,1.23.77,1.82,1.2,2.83,2.06,5.67,4.12,8.5,6.18.47.34.95.69,1.52.82.27.06.54.08.81.09,3.62.16,7.23.33,10.85.49.84.04,1.96-.13,2.08-.97Z"></path><path class="cls-4" d="m391.3,286.81c.56,2.78,3.83,3.33,6.16,3.6,5.6.63,1.42-4.5-1.28-5.6-1.86-.76-5.51-1.08-4.88,2Z"></path><path class="cls-4" d="m439.29,282.51c-1.52-.61-3.17-.81-4.76-1.21-3.02-.76-5.87-2.24-8.97-2.62-1.19-.15-2.4-.13-3.6-.11-1.25.02-3.54.43-3.35,2.17.16,1.45,2.26,1.9,2.6,3.35.13.57-.01,1.18.11,1.75.24,1.14,1.41,1.77,2.4,2.38.75.47,1.46,1.02,2.27,1.36s1.79.45,2.57.04c.63-.34,1.05-.96,1.62-1.39,1.23-.91,2.91-.77,4.43-.65,2.1.17,4.21.24,6.32.19.62-.01,1.34-.08,1.7-.59.28-.4.24-.93.09-1.4-.48-1.57-1.91-2.68-3.44-3.29Z"></path></g></g><rect class="cls-9" x="38.24" y="443.22" width="668.45" height="1"></rect><path class="cls-7" d="m71.29,466.54c-1.35,0-2.63-.46-3.67-1.31-2.07,1.7-5.27,1.7-7.34,0-2.07,1.7-5.27,1.7-7.34,0-1.03.85-2.32,1.31-3.67,1.31s-2.64-.46-3.67-1.31c-1.03.85-2.32,1.31-3.67,1.31-1.51,0-2.93-.58-4.02-1.63l.7-.72c.9.87,2.08,1.34,3.32,1.34s2.42-.48,3.32-1.34l.35-.34.35.34c.9.87,2.08,1.34,3.32,1.34s2.42-.48,3.32-1.34l.35-.34.35.34c.9.87,2.08,1.34,3.32,1.34s2.42-.48,3.32-1.34l.35-.34.35.34c.9.87,2.08,1.34,3.32,1.34s2.42-.48,3.32-1.34l.35-.34.35.34c.9.87,2.08,1.34,3.32,1.34s2.42-.48,3.32-1.34l.7.72c-1.08,1.05-2.51,1.62-4.02,1.62Z"></path><path class="cls-7" d="m287.75,466.54c-1.35,0-2.64-.46-3.67-1.31-2.07,1.7-5.27,1.7-7.34,0-1.03.85-2.32,1.31-3.67,1.31s-2.64-.46-3.67-1.31c-1.03.85-2.32,1.31-3.67,1.31s-2.64-.46-3.67-1.31c-1.03.85-2.32,1.31-3.67,1.31-1.51,0-2.93-.58-4.02-1.63l.7-.72c.9.87,2.08,1.34,3.32,1.34s2.42-.48,3.32-1.34l.35-.34.35.34c.9.87,2.08,1.34,3.32,1.34s2.42-.48,3.32-1.34l.35-.34.35.34c.9.87,2.08,1.34,3.32,1.34s2.42-.48,3.32-1.34l.35-.34.35.34c.9.87,2.08,1.34,3.32,1.34s2.42-.48,3.32-1.34l.35-.34.35.34c.9.87,2.08,1.34,3.32,1.34s2.42-.48,3.32-1.34l.7.72c-1.09,1.05-2.51,1.62-4.02,1.62Z"></path><path class="cls-7" d="m215.98,456.65c-1.35,0-2.64-.46-3.67-1.31-2.07,1.7-5.27,1.7-7.34,0-2.07,1.7-5.27,1.7-7.34,0-2.07,1.7-5.27,1.7-7.34,0-1.03.85-2.32,1.31-3.67,1.31-1.5,0-2.93-.58-4.02-1.62l.7-.72c.9.87,2.08,1.34,3.32,1.34s2.42-.48,3.32-1.34l.35-.34.35.33c.9.87,2.08,1.34,3.32,1.34s2.42-.48,3.32-1.34l.35-.34.35.33c.9.87,2.08,1.34,3.32,1.34s2.42-.48,3.32-1.34l.35-.34.35.34c.9.87,2.08,1.34,3.32,1.34s2.42-.48,3.32-1.34l.35-.34.35.34c.9.87,2.08,1.34,3.32,1.34s2.42-.48,3.32-1.34l.7.72c-1.08,1.05-2.51,1.62-4.02,1.62Z"></path><path class="cls-7" d="m107.52,466.54c-1.35,0-2.63-.46-3.67-1.31-1.03.85-2.32,1.31-3.67,1.31s-2.63-.46-3.67-1.31c-1.03.85-2.32,1.31-3.67,1.31-1.51,0-2.93-.58-4.02-1.63l.7-.72c.9.87,2.08,1.34,3.32,1.34s2.42-.48,3.32-1.34l.35-.34.35.34c.9.87,2.08,1.34,3.32,1.34s2.42-.48,3.32-1.34l.35-.34.35.34c.9.87,2.08,1.34,3.32,1.34s2.42-.48,3.32-1.34l.7.72c-1.08,1.05-2.51,1.62-4.02,1.62Z"></path><path class="cls-7" d="m88.9,456.65c-1.35,0-2.64-.46-3.67-1.31-2.07,1.7-5.27,1.7-7.34,0-1.03.85-2.32,1.31-3.67,1.31-1.5,0-2.93-.58-4.02-1.62l.7-.72c.9.87,2.08,1.34,3.32,1.34s2.42-.48,3.32-1.34l.35-.34.35.34c.9.87,2.08,1.34,3.32,1.34s2.42-.48,3.32-1.34l.35-.34.35.34c.9.87,2.08,1.34,3.32,1.34s2.42-.48,3.32-1.34l.7.72c-1.08,1.05-2.51,1.62-4.02,1.62Z"></path><path class="cls-7" d="m253.88,456.65c-1.35,0-2.64-.46-3.67-1.31-2.07,1.7-5.27,1.7-7.34,0-1.03.85-2.32,1.31-3.67,1.31-1.51,0-2.93-.58-4.02-1.62l.7-.72c.9.87,2.08,1.34,3.32,1.34s2.42-.48,3.32-1.34l.35-.34.35.34c.9.87,2.08,1.34,3.32,1.34s2.42-.48,3.32-1.34l.35-.34.35.34c.9.87,2.08,1.34,3.32,1.34s2.42-.48,3.32-1.34l.7.72c-1.08,1.05-2.51,1.62-4.02,1.62Z"></path><path class="cls-7" d="m179.3,466.54c-1.35,0-2.63-.46-3.67-1.31-1.03.85-2.32,1.31-3.67,1.31s-2.63-.46-3.67-1.31c-1.03.85-2.32,1.31-3.67,1.31-1.51,0-2.93-.58-4.02-1.63l.7-.72c.9.87,2.08,1.34,3.32,1.34s2.42-.48,3.32-1.34l.35-.34.35.34c.9.87,2.08,1.34,3.32,1.34s2.42-.48,3.32-1.34l.35-.34.35.34c.9.87,2.08,1.34,3.32,1.34s2.42-.48,3.32-1.34l.7.72c-1.08,1.05-2.51,1.62-4.02,1.62Z"></path><path class="cls-7" d="m319.46,466.54c-1.35,0-2.64-.46-3.67-1.31-1.03.85-2.32,1.31-3.67,1.31s-2.64-.46-3.67-1.31c-1.03.85-2.32,1.31-3.67,1.31-1.5,0-2.93-.58-4.02-1.62l.7-.72c.9.87,2.08,1.34,3.32,1.34s2.42-.48,3.32-1.34l.35-.34.35.34c.9.87,2.08,1.34,3.32,1.34s2.42-.48,3.32-1.34l.35-.34.35.34c.9.87,2.08,1.34,3.32,1.34s2.42-.48,3.32-1.34l.7.72c-1.08,1.05-2.51,1.62-4.02,1.62Z"></path><path class="cls-7" d="m711.76,465.8h-2.69v-1h2.69v1Zm-11.69,0h-7v-1h7v1Zm-16,0h-7v-1h7v1Zm-16,0h-7v-1h7v1Zm-16,0h-7v-1h7v1Zm-16,0h-7v-1h7v1Zm-16,0h-7v-1h7v1Zm-16,0h-7v-1h7v1Zm-16,0h-7v-1h7v1Zm-16,0h-7v-1h7v1Zm-16,0h-7v-1h7v1Zm-16,0h-7v-1h7v1Zm-16,0h-7v-1h7v1Zm-16,0h-7v-1h7v1Zm-16,0h-7v-1h7v1Zm-16,0h-7v-1h7v1Zm-16,0h-7v-1h7v1Zm-16,0h-7v-1h7v1Zm-16,0h-7v-1h7v1Zm-16,0h-7v-1h7v1Zm-16,0h-7v-1h7v1Z"></path><g><path class="cls-2" d="m252.48,205.75l-1-.09.05-.57,1,.09-.05.57Zm.36-3.54l-.99-.11c.11-1,.24-2,.37-2.99l.99.13c-.13.98-.25,1.97-.36,2.97Zm.79-5.92l-.99-.15c.16-1,.32-1.99.5-2.97l.98.18c-.18.98-.34,1.96-.5,2.95Zm1.06-5.88l-.98-.2c.2-.99.42-1.97.64-2.94l.97.22c-.22.97-.43,1.94-.63,2.92Zm1.34-5.82l-.97-.25c.25-.98.52-1.95.79-2.91l.96.28c-.27.95-.53,1.91-.78,2.88Zm1.65-5.74l-.95-.3c.3-.96.62-1.91.95-2.85l.94.33c-.33.93-.64,1.88-.94,2.83Zm1.96-5.62l-.93-.36c.36-.94.73-1.87,1.12-2.8l.92.39c-.38.91-.75,1.84-1.11,2.77Zm2.3-5.5l-.91-.41c.42-.92.85-1.82,1.29-2.72l.9.44c-.44.89-.87,1.79-1.28,2.69Zm2.64-5.34l-.88-.47c.48-.89.96-1.76,1.47-2.63l.87.5c-.5.86-.98,1.73-1.45,2.6Zm3-5.16l-.85-.53c.53-.85,1.08-1.7,1.65-2.53l.83.56c-.56.83-1.1,1.66-1.63,2.5Zm3.34-4.95l-.81-.59c.59-.81,1.2-1.62,1.82-2.41l.79.62c-.62.79-1.21,1.58-1.8,2.39Zm3.67-4.7l-.77-.64c.64-.77,1.3-1.53,1.98-2.28l.74.67c-.67.74-1.32,1.49-1.95,2.25Zm3.98-4.44l-.72-.69c.69-.72,1.4-1.43,2.12-2.14l.7.72c-.72.7-1.42,1.4-2.1,2.12Zm4.27-4.16l-.67-.74c.74-.67,1.49-1.34,2.26-2l.65.76c-.76.65-1.51,1.31-2.24,1.97Zm4.53-3.88l-.62-.78c.78-.62,1.57-1.24,2.38-1.85l.6.8c-.8.6-1.58,1.21-2.36,1.83Zm4.76-3.58l-.56-.83c.82-.56,1.67-1.11,2.53-1.65l.53.85c-.85.53-1.68,1.07-2.5,1.63Zm128.92-2.98c-.87-.48-1.75-.94-2.64-1.39l.45-.89c.9.46,1.79.92,2.66,1.41l-.48.88Zm-123.86-.17l-.5-.87c.87-.49,1.75-.98,2.65-1.45l.46.89c-.89.46-1.76.94-2.62,1.43Zm118.54-2.53c-.9-.42-1.8-.83-2.72-1.23l.4-.92c.92.4,1.84.82,2.74,1.24l-.43.9Zm-113.26-.23l-.43-.9c.9-.43,1.81-.85,2.74-1.26l.4.92c-.92.4-1.82.82-2.71,1.25Zm107.8-2.16c-.92-.37-1.85-.73-2.78-1.08l.35-.94c.94.35,1.88.72,2.81,1.09l-.38.93Zm-102.34-.25l-.38-.93c.92-.38,1.86-.74,2.81-1.09l.35.94c-.94.35-1.87.71-2.78,1.08Zm96.74-1.83c-.94-.32-1.88-.64-2.83-.94l.3-.95c.96.3,1.91.62,2.86.94l-.33.95Zm-91.15-.25l-.32-.95c.94-.32,1.9-.63,2.86-.94l.3.95c-.96.3-1.9.61-2.84.93Zm85.46-1.55c-.95-.28-1.91-.54-2.88-.8l.26-.97c.97.26,1.94.53,2.9.81l-.28.96Zm-79.76-.23l-.27-.96c.96-.27,1.93-.54,2.91-.79l.25.97c-.97.25-1.93.51-2.88.79Zm73.98-1.3c-.97-.23-1.94-.46-2.91-.67l.21-.98c.98.21,1.96.44,2.93.67l-.23.97Zm-68.2-.2l-.23-.97c.97-.23,1.95-.45,2.94-.66l.21.98c-.98.21-1.95.42-2.92.65Zm62.36-1.07c-.98-.19-1.96-.37-2.94-.54l.17-.99c.99.17,1.98.35,2.96.54l-.19.98Zm-56.51-.17l-.19-.98c.98-.19,1.97-.36,2.96-.53l.16.99c-.99.16-1.97.34-2.94.52Zm50.62-.85c-.98-.15-1.97-.29-2.96-.42l.13-.99c1,.13,1.99.27,2.98.42l-.15.99Zm-44.72-.13l-.14-.99c.99-.14,1.99-.28,2.99-.4l.12.99c-.99.12-1.98.26-2.97.4Zm38.79-.64c-.99-.11-1.98-.21-2.98-.3l.09-1c1,.09,2,.19,3,.3l-.11.99Zm-32.85-.1l-.1-1c1-.1,2-.2,3-.28l.08,1c-1,.08-1.99.18-2.98.28Zm26.9-.44c-1-.07-1.99-.13-2.99-.18l.05-1c1,.05,2,.11,3,.18l-.07,1Zm-20.93-.06l-.06-1c1-.06,2-.12,3.01-.17l.04,1c-1,.05-2,.1-2.99.16Zm14.96-.24c-1-.03-1.99-.05-2.99-.07v-1c1.02.01,2.02.04,3.02.07l-.03,1Zm-8.98-.03l-.03-1c1-.03,2.01-.04,3.01-.05v1c-.99,0-1.99.02-2.99.05Z"></path><path class="cls-2" d="m300.66,288.26c-.42-.91-.83-1.83-1.23-2.74l.91-.4c.4.91.81,1.82,1.23,2.73l-.91.41Zm-2.44-5.49c-.4-.92-.79-1.84-1.18-2.76l.92-.39c.38.92.78,1.84,1.17,2.75l-.92.4Zm-2.33-5.54c-.38-.93-.75-1.86-1.12-2.79l.93-.37c.37.93.74,1.85,1.12,2.78l-.93.38Zm101.23-5.18c-.21-.98-.43-1.95-.65-2.92l.97-.22c.22.97.44,1.95.66,2.93l-.98.21Zm-103.45-.41c-.36-.94-.71-1.88-1.06-2.82l.94-.35c.35.94.7,1.87,1.06,2.81l-.93.36Zm102.11-5.42c-.23-.97-.47-1.94-.72-2.91l.97-.25c.25.97.48,1.94.72,2.92l-.97.23Zm-104.2-.23c-.34-.95-.67-1.89-1-2.84l.95-.33c.33.94.66,1.89,1,2.83l-.94.34Zm102.73-5.57c-.26-.97-.52-1.93-.78-2.89l.96-.27c.27.96.53,1.93.79,2.9l-.97.26Zm-104.7-.12c-.32-.96-.63-1.91-.93-2.86l.95-.3c.3.95.61,1.9.93,2.85l-.95.31Zm103.1-5.65c-.28-.96-.56-1.92-.85-2.87l.96-.29c.29.96.57,1.92.85,2.88l-.96.28Zm-104.93-.09c-.29-.96-.58-1.92-.86-2.89l.96-.28c.28.96.57,1.92.86,2.88l-.96.29Zm103.2-5.64c-.3-.95-.6-1.9-.91-2.85l.95-.31c.31.95.62,1.9.92,2.86l-.96.3Zm-104.89-.14c-.27-.97-.53-1.94-.79-2.91l.97-.25c.25.96.52,1.93.78,2.9l-.96.27Zm103.03-5.55c-.32-.95-.65-1.89-.98-2.83l.94-.33c.33.94.66,1.89.99,2.84l-.95.32Zm-104.56-.28c-.24-.98-.48-1.95-.71-2.93l.97-.23c.23.97.46,1.94.71,2.91l-.97.24Zm102.56-5.36c-.35-.94-.7-1.87-1.05-2.8l.93-.36c.36.93.71,1.87,1.06,2.81l-.94.35Zm-103.94-.5c-.22-.98-.43-1.96-.63-2.95l.98-.2c.2.98.41,1.95.63,2.93l-.98.21Zm101.8-5.09c-.37-.93-.75-1.85-1.12-2.77l.92-.38c.38.92.76,1.85,1.13,2.79l-.93.37Zm-103.01-.81c-.19-.99-.37-1.97-.54-2.96l.98-.17c.17.98.35,1.96.54,2.95l-.98.19Zm100.73-4.72c-.4-.92-.79-1.83-1.2-2.74l.91-.41c.41.91.81,1.83,1.2,2.75l-.92.39Zm-101.77-1.21c-.16-.99-.31-1.99-.46-2.98l.99-.14c.14.99.29,1.97.45,2.96l-.99.16Zm99.34-4.26c-.42-.91-.84-1.81-1.27-2.71l.9-.43c.43.9.86,1.81,1.28,2.72l-.91.42Zm-100.2-1.7c-.13-1-.25-1.99-.37-2.99l.99-.11c.11.99.23,1.98.36,2.97l-.99.13Zm97.62-3.7c-.44-.9-.89-1.79-1.35-2.67l.89-.46c.46.89.91,1.78,1.35,2.68l-.9.44Zm-98.31-2.28c-.1-1-.19-2-.27-3l1-.08c.08.99.17,1.99.27,2.98l-1,.1Zm95.57-3.04c-.47-.88-.94-1.76-1.42-2.63l.88-.48c.48.88.96,1.76,1.43,2.64l-.88.47Zm-96.07-2.96c-.07-1-.12-2-.17-3l1-.05c.05,1,.11,1.99.17,2.99l-1,.07Zm93.18-2.28c-.5-.87-.99-1.73-1.5-2.59l.86-.51c.51.86,1.01,1.73,1.51,2.6l-.87.5Zm-93.48-3.73c-.03-1-.06-2.01-.07-3.01l1-.02c.02,1,.04,1.99.07,2.99l-1,.03Zm90.44-1.43c-.52-.85-1.05-1.7-1.58-2.54l.85-.53c.53.85,1.06,1.7,1.59,2.56l-.85.52Zm-89.54-4.59h-1c0-1,.01-2.01.03-3.01l1,.02c-.02,1-.03,1.99-.03,2.99Zm86.34-.47c-.55-.84-1.1-1.67-1.66-2.49l.83-.56c.56.83,1.12,1.66,1.67,2.5l-.84.55Zm-3.35-4.96c-.57-.82-1.15-1.63-1.73-2.44l.81-.59c.59.81,1.17,1.63,1.74,2.45l-.82.57Zm-82.88-.56l-1-.04c.04-1,.08-2,.13-3.01l1,.05c-.05,1-.1,1.99-.13,2.99Zm79.37-4.29c-.6-.8-1.2-1.59-1.81-2.38l.79-.61c.61.79,1.22,1.59,1.82,2.39l-.8.6Zm-79.06-1.68l-1-.07c.07-1,.15-2,.24-3l1,.09c-.09.99-.16,1.99-.24,2.98Zm75.39-3.05c-.63-.78-1.26-1.55-1.89-2.32l.77-.64c.64.77,1.27,1.55,1.9,2.33l-.78.63Zm-74.87-2.91l-.99-.11c.11-1,.22-1.99.34-2.99l.99.12c-.12.99-.24,1.98-.34,2.97Zm71.04-1.69c-.65-.76-1.31-1.51-1.97-2.25l.75-.67c.67.75,1.33,1.5,1.98,2.26l-.76.65Zm-70.31-4.25l-.99-.14c.14-.99.29-1.98.45-2.97l.99.16c-.16.99-.31,1.97-.45,2.96Zm66.33-.22c-.68-.73-1.36-1.46-2.05-2.18l.72-.69c.69.72,1.38,1.45,2.06,2.19l-.73.68Zm-4.14-4.32c-.7-.71-1.41-1.41-2.12-2.11l.7-.72c.72.7,1.43,1.4,2.14,2.12l-.71.7Zm-61.25-1.36l-.98-.17c.17-.99.36-1.97.55-2.96l.98.19c-.19.98-.38,1.96-.55,2.94Zm56.97-2.81c-.73-.68-1.46-1.36-2.2-2.03l.67-.74c.74.67,1.48,1.35,2.21,2.04l-.68.73Zm-55.82-3.06l-.98-.21c.21-.98.43-1.96.66-2.93l.97.23c-.23.97-.44,1.94-.65,2.92Zm51.38-.95c-.75-.66-1.51-1.3-2.27-1.94l.64-.77c.77.64,1.53,1.3,2.29,1.96l-.66.75Zm-4.57-3.84c-.77-.62-1.55-1.24-2.34-1.85l.61-.79c.79.61,1.57,1.23,2.35,1.86l-.63.78Zm-45.45-1.03l-.97-.25c.24-.97.5-1.94.76-2.91l.96.26c-.26.96-.51,1.93-.76,2.89Zm40.75-2.63c-.8-.6-1.6-1.18-2.41-1.76l.58-.81c.81.58,1.62,1.17,2.42,1.77l-.6.8Zm-39.18-3.14l-.96-.28c.28-.96.57-1.92.86-2.88l.96.29c-.29.95-.58,1.91-.86,2.86Zm34.34-.34c-.82-.56-1.64-1.12-2.47-1.67l.55-.83c.84.55,1.67,1.11,2.49,1.68l-.57.82Zm-4.98-3.29c-.84-.53-1.69-1.06-2.54-1.57l.52-.85c.86.52,1.71,1.05,2.55,1.59l-.54.84Zm-27.6-2.08l-.95-.31c.31-.95.63-1.9.96-2.85l.95.33c-.33.94-.64,1.89-.95,2.83Zm22.5-1.02c-.86-.5-1.73-.99-2.6-1.48l.49-.87c.88.49,1.75.98,2.61,1.49l-.5.87Zm-5.22-2.9c-.88-.47-1.76-.92-2.65-1.37l.45-.89c.9.45,1.79.91,2.67,1.38l-.47.88Zm-15.31-1.72l-.94-.34c.34-.94.69-1.88,1.06-2.81l.93.36c-.36.93-.71,1.86-1.05,2.8Zm9.98-.97c-.9-.43-1.8-.86-2.71-1.27l.42-.91c.91.42,1.82.84,2.72,1.28l-.43.9Zm-5.44-2.49c-.92-.4-1.83-.79-2.76-1.16l.38-.92c.93.38,1.85.77,2.78,1.17l-.4.92Z"></path><path class="cls-2" d="m410.47,409.71c-.04-1-.07-2-.12-2.99l1-.04c.04,1,.08,2,.12,3l-1,.04Zm-.25-5.98c-.05-1-.1-1.99-.16-2.99l1-.06c.06,1,.11,1.99.16,2.99l-1,.05Zm-.33-5.97c-.06-.99-.13-1.99-.2-2.98l1-.07c.07.99.13,1.99.2,2.98l-1,.06Zm-.41-5.97c-.07-1-.15-1.99-.24-2.99l1-.08c.08,1,.16,2,.24,2.99l-1,.08Zm-.49-5.97c-.09-1-.18-1.99-.28-2.98l1-.1c.1,1,.19,1.99.28,2.99l-1,.09Zm-.57-5.97c-.1-.99-.21-1.99-.32-2.98l.99-.11c.11.99.21,1.99.32,2.99l-.99.1Zm-.65-5.96c-.12-.99-.23-1.98-.36-2.98l.99-.12c.12.99.24,1.99.36,2.98l-.99.12Zm-.73-5.95c-.13-.99-.26-1.98-.4-2.97l.99-.14c.14.99.27,1.98.4,2.98l-.99.13Zm-.81-5.94c-.14-.99-.29-1.98-.44-2.97l.99-.15c.15.99.29,1.98.44,2.97l-.99.14Zm-.89-5.93c-.16-.99-.31-1.97-.48-2.96l.99-.16c.16.99.32,1.98.48,2.96l-.99.16Zm-.97-5.91c-.17-.99-.34-1.97-.52-2.95l.98-.18c.18.98.35,1.97.52,2.96l-.99.17Zm-1.05-5.9c-.18-.98-.37-1.96-.56-2.94l.98-.19c.19.98.37,1.97.56,2.95l-.98.18Zm-1.13-5.89c-.2-.98-.39-1.96-.6-2.94l.98-.2c.2.98.4,1.96.6,2.94l-.98.2Zm-1.21-5.87c-.21-.98-.42-1.95-.64-2.93l.98-.22c.22.98.43,1.95.64,2.94l-.98.21Zm-1.29-5.85c-.22-.97-.45-1.95-.68-2.92l.97-.23c.23.97.46,1.95.68,2.93l-.97.22Zm-1.37-5.83c-.23-.97-.47-1.94-.72-2.91l.97-.24c.24.97.48,1.94.72,2.92l-.97.24Zm-1.45-5.81c-.25-.97-.5-1.94-.76-2.9l.97-.26c.26.97.51,1.94.76,2.91l-.97.25Zm-1.53-5.79c-.26-.96-.53-1.93-.8-2.89l.96-.27c.27.96.54,1.93.8,2.89l-.96.26Zm-1.61-5.77c-.28-.96-.55-1.92-.84-2.88l.96-.28c.28.96.56,1.92.84,2.88l-.96.28Zm-1.69-5.75c-.29-.96-.58-1.91-.88-2.87l.96-.3c.29.96.59,1.91.88,2.87l-.96.29Zm-1.77-5.73c-.3-.95-.61-1.9-.92-2.85l.95-.31c.31.95.62,1.9.92,2.86l-.95.3Zm-1.85-5.7c-.31-.95-.63-1.89-.96-2.84l.95-.32c.32.95.64,1.9.96,2.85l-.95.32Zm-1.93-5.67c-.33-.94-.66-1.89-1-2.83l.94-.34c.34.94.67,1.89,1,2.83l-.94.33Zm-2.01-5.64c-.34-.94-.69-1.88-1.04-2.81l.94-.35c.35.94.7,1.88,1.04,2.82l-.94.34Zm-2.09-5.62c-.36-.93-.72-1.87-1.08-2.8l.93-.36c.36.93.72,1.87,1.08,2.8l-.93.36Zm-2.17-5.59c-.37-.93-.74-1.86-1.12-2.78l.93-.38c.38.93.75,1.86,1.12,2.79l-.93.37Zm-2.25-5.55c-.38-.92-.77-1.85-1.16-2.76l.92-.39c.39.92.78,1.84,1.16,2.77l-.92.38Zm-2.34-5.52c-.4-.92-.79-1.83-1.2-2.75l.92-.4c.4.92.8,1.83,1.2,2.75l-.92.4Zm-2.41-5.48c-.41-.91-.82-1.82-1.24-2.73l.91-.42c.42.91.83,1.82,1.24,2.73l-.91.41Zm-2.5-5.45c-.42-.91-.85-1.81-1.28-2.71l.9-.43c.43.9.86,1.81,1.28,2.72l-.91.42Zm-2.58-5.41c-.44-.9-.88-1.8-1.32-2.69l.9-.44c.44.9.88,1.8,1.32,2.7l-.9.44Zm-2.66-5.37c-.45-.89-.9-1.78-1.36-2.67l.89-.46c.46.89.91,1.78,1.36,2.68l-.89.45Zm-2.74-5.33c-.46-.89-.93-1.77-1.4-2.65l.88-.47c.47.88.94,1.77,1.4,2.66l-.89.46Zm-2.82-5.29c-.48-.88-.96-1.75-1.44-2.63l.88-.49c.49.88.97,1.75,1.45,2.63l-.88.48Zm-2.9-5.24c-.49-.87-.99-1.74-1.48-2.6l.87-.5c.5.87.99,1.74,1.49,2.61l-.87.49Zm-2.99-5.19c-.5-.86-1.01-1.72-1.52-2.58l.86-.51c.51.86,1.02,1.72,1.53,2.59l-.86.5Zm-3.07-5.15c-.52-.85-1.04-1.71-1.57-2.55l.85-.53c.53.85,1.05,1.7,1.57,2.56l-.85.52Zm-3.15-5.09c-.53-.85-1.07-1.69-1.61-2.53l.84-.54c.54.84,1.08,1.69,1.61,2.53l-.85.53Zm-3.24-5.04c-.55-.84-1.1-1.67-1.65-2.5l.83-.55c.55.83,1.11,1.67,1.66,2.51l-.84.55Zm-3.32-4.99c-.56-.83-1.12-1.65-1.69-2.47l.82-.57c.57.82,1.13,1.65,1.7,2.48l-.83.56Zm-3.4-4.93c-.58-.82-1.15-1.63-1.73-2.44l.81-.58c.58.81,1.16,1.63,1.74,2.45l-.82.58Zm-3.49-4.87c-.59-.81-1.18-1.61-1.78-2.41l.8-.6c.6.8,1.19,1.61,1.78,2.42l-.81.59Zm-3.57-4.81c-.6-.8-1.21-1.59-1.82-2.38l.79-.61c.61.79,1.22,1.59,1.83,2.39l-.8.6Zm-3.66-4.74c-.62-.79-1.24-1.57-1.86-2.35l.78-.62c.62.78,1.25,1.57,1.87,2.35l-.79.62Zm-3.75-4.68c-.63-.77-1.27-1.55-1.91-2.31l.77-.64c.64.77,1.28,1.54,1.91,2.32l-.78.63Zm-3.83-4.61c-.65-.76-1.29-1.52-1.95-2.28l.76-.65c.65.76,1.31,1.52,1.96,2.28l-.76.65Zm-3.92-4.53c-.66-.75-1.33-1.5-1.99-2.24l.74-.67c.67.74,1.33,1.49,2,2.24l-.75.66Zm-4-4.46c-.68-.74-1.35-1.47-2.04-2.2l.73-.68c.68.73,1.36,1.47,2.04,2.2l-.74.68Zm-4.09-4.38c-.69-.72-1.38-1.44-2.08-2.16l.72-.7c.7.72,1.39,1.44,2.09,2.16l-.72.69Zm-124.2-1.92l-.54-.84s.93-.6,2.62-1.55l.49.87c-1.66.93-2.56,1.51-2.57,1.51Zm120.02-2.37c-.7-.71-1.41-1.41-2.12-2.11l.7-.71c.71.7,1.42,1.41,2.13,2.12l-.71.7Zm-114.82-.56l-.46-.89c.81-.42,1.71-.88,2.69-1.36l.44.9c-.98.48-1.87.93-2.67,1.35Zm5.37-2.63l-.42-.91c.87-.4,1.79-.81,2.75-1.23l.4.92c-.96.42-1.87.82-2.73,1.22Zm105.18-1.02c-.72-.69-1.44-1.38-2.17-2.07l.69-.73c.73.69,1.45,1.38,2.17,2.08l-.7.72Zm-99.7-1.36l-.38-.93c.9-.37,1.83-.74,2.8-1.11l.36.93c-.96.37-1.89.74-2.78,1.1Zm5.59-2.15l-.34-.94c.92-.33,1.87-.66,2.84-.99l.32.95c-.97.33-1.91.66-2.82.99Zm89.76-.6c-.73-.68-1.47-1.35-2.21-2.02l.67-.74c.74.67,1.48,1.35,2.22,2.03l-.68.73Zm-84.09-1.31l-.3-.95c.94-.3,1.9-.59,2.88-.88l.28.96c-.97.29-1.93.58-2.86.87Zm5.74-1.69l-.26-.96c.96-.26,1.93-.51,2.91-.76l.24.97c-.98.25-1.95.5-2.89.76Zm73.87-.45c-.97-.26-1.93-.51-2.9-.74l.24-.97c.97.24,1.94.49,2.91.75l-.26.97Zm-68.06-1.01l-.22-.97c.97-.22,1.95-.44,2.94-.64l.2.98c-.99.21-1.96.42-2.92.64Zm62.26-.41c-.98-.22-1.95-.42-2.92-.62l.2-.98c.98.2,1.96.4,2.95.62l-.22.98Zm-56.41-.81l-.18-.98c.98-.18,1.96-.36,2.96-.53l.16.99c-.99.17-1.98.34-2.95.52Zm50.54-.36c-.99-.17-1.97-.34-2.95-.49l.15-.99c.98.15,1.97.32,2.97.49l-.17.98Zm-44.64-.62l-.14-.99c.98-.14,1.98-.28,2.98-.4l.12.99c-1,.12-1.99.26-2.96.4Zm38.74-.3c-.99-.13-1.98-.25-2.97-.36l.11-.99c.99.11,1.99.23,2.99.36l-.13.99Zm-32.8-.44l-.1-1c.99-.1,1.99-.2,3-.28l.08,1c-1,.08-1.99.18-2.98.28Zm26.86-.21c-1-.09-1.99-.17-2.98-.23l.07-1c1,.07,2,.14,3,.23l-.09,1Zm-20.91-.28l-.06-1c.99-.06,2-.11,3.01-.15l.04,1c-1,.04-2,.09-2.99.15Zm14.94-.12c-1-.05-2-.08-2.99-.1l.02-1c1,.02,2,.06,3.01.1l-.04,1Zm-8.97-.12l-.02-1c.89-.02,1.78-.03,2.67-.03h.34s0,1,0,1h-.33c-.89,0-1.78,0-2.65.02Z"></path><path class="cls-2" d="m291.9,131.53l-.97-.25s.28-1.09.89-2.92l.95.32c-.6,1.79-.87,2.84-.87,2.85Zm1.87-5.67l-.94-.35c.32-.86.69-1.8,1.1-2.81l.93.38c-.41,1-.77,1.93-1.09,2.78Zm2.27-5.53l-.91-.41c.39-.88.82-1.79,1.27-2.74l.9.43c-.45.94-.87,1.84-1.26,2.71Zm2.59-5.39l-.89-.46c.45-.87.93-1.76,1.43-2.66l.87.49c-.5.89-.97,1.77-1.41,2.63Zm2.91-5.22l-.86-.51c.51-.85,1.03-1.7,1.59-2.57l.84.54c-.55.86-1.07,1.7-1.57,2.54Zm3.22-5.03l-.83-.56c.56-.82,1.14-1.64,1.74-2.46l.81.59c-.6.81-1.17,1.63-1.72,2.44Zm3.53-4.82l-.79-.62c.61-.78,1.25-1.56,1.9-2.34l.77.64c-.65.77-1.27,1.54-1.88,2.32Zm3.84-4.57l-.74-.67c.67-.74,1.35-1.48,2.06-2.21l.72.7c-.7.72-1.38,1.45-2.04,2.18Zm4.15-4.28l-.69-.72c.72-.69,1.46-1.37,2.22-2.05l.66.75c-.75.67-1.48,1.34-2.19,2.02Zm4.46-3.96l-.63-.77c.77-.63,1.56-1.26,2.37-1.87l.6.8c-.8.6-1.58,1.22-2.34,1.84Zm4.75-3.59l-.57-.82c.82-.57,1.66-1.13,2.52-1.67l.54.84c-.85.54-1.67,1.09-2.48,1.65Zm5.03-3.19l-.5-.87c.86-.5,1.75-.98,2.64-1.46l.46.89c-.89.46-1.76.94-2.61,1.44Zm5.27-2.76l-.43-.91c.9-.42,1.82-.83,2.76-1.23l.39.92c-.92.39-1.83.79-2.72,1.21Zm5.49-2.31l-.35-.94c.93-.35,1.88-.68,2.85-.99l.31.95c-.95.31-1.89.64-2.81.98Z"></path><path class="cls-2" d="m96.32,425.97l-1-.03c.02-.89.05-1.77.08-2.66l1,.03c-.03.89-.06,1.77-.08,2.66Zm.2-5.65l-1-.04c.04-1,.09-2,.14-3l1,.05c-.05,1-.09,2-.13,2.99Zm.29-5.98l-1-.06c.06-1,.12-2,.18-3l1,.06c-.06,1-.12,1.99-.18,2.99Zm.38-5.98l-1-.07c.07-1,.14-2,.22-2.99l1,.08c-.08,1-.15,1.99-.22,2.99Zm.46-5.97l-1-.08c.08-1,.17-1.99.26-2.99l1,.09c-.09.99-.18,1.99-.26,2.98Zm.55-5.96l-1-.1c.1-1,.2-1.99.31-2.98l.99.11c-.11.99-.21,1.98-.3,2.98Zm.63-5.95l-.99-.11c.11-.99.23-1.99.35-2.98l.99.12c-.12.99-.24,1.98-.35,2.97Zm.72-5.94l-.99-.13c.13-.99.26-1.98.39-2.97l.99.13c-.13.99-.26,1.98-.39,2.97Zm.8-5.93l-.99-.14c.14-.99.29-1.98.43-2.97l.99.15c-.15.99-.29,1.97-.43,2.96Zm.89-5.92l-.99-.15c.15-.99.31-1.97.48-2.96l.99.16c-.16.98-.32,1.97-.47,2.95Zm.97-5.9l-.99-.17c.17-.99.34-1.97.52-2.95l.98.18c-.18.98-.35,1.96-.52,2.94Zm1.06-5.88l-.98-.18c.18-.98.37-1.96.56-2.94l.98.19c-.19.98-.38,1.96-.56,2.94Zm1.15-5.87l-.98-.2c.2-.98.4-1.96.61-2.93l.98.21c-.21.97-.41,1.95-.6,2.93Zm1.23-5.85l-.98-.21c.21-.98.43-1.95.65-2.92l.97.22c-.22.97-.43,1.94-.65,2.92Zm1.32-5.83l-.97-.23c.23-.97.46-1.94.69-2.91l.97.24c-.23.97-.46,1.93-.69,2.91Zm1.4-5.81l-.97-.24c.24-.97.49-1.94.74-2.9l.97.25c-.25.96-.49,1.93-.73,2.89Zm1.49-5.78l-.97-.26c.26-.96.52-1.93.78-2.89l.96.26c-.26.96-.52,1.92-.78,2.88Zm1.58-5.76l-.96-.27c.27-.96.55-1.92.82-2.88l.96.28c-.28.96-.55,1.91-.82,2.87Zm1.67-5.73l-.96-.29c.29-.96.58-1.91.87-2.86l.95.29c-.29.95-.58,1.9-.87,2.86Zm1.75-5.7l-.95-.3c.3-.96.61-1.91.92-2.86l.95.31c-.31.95-.61,1.9-.92,2.85Zm1.85-5.7l-.95-.32c.32-.95.64-1.9.96-2.84l.95.32c-.32.94-.64,1.89-.96,2.84Zm1.95-5.67l-.94-.33c.33-.94.67-1.89,1.01-2.83l.94.34c-.34.94-.67,1.88-1.01,2.82Zm2.04-5.64l-.94-.35c.35-.94.7-1.88,1.06-2.81l.94.36c-.36.93-.71,1.87-1.05,2.8Zm2.13-5.6l-.93-.36c.36-.93.73-1.87,1.1-2.79l.93.37c-.37.93-.74,1.86-1.1,2.79Zm2.22-5.56l-.93-.38c.38-.93.76-1.85,1.15-2.77l.92.39c-.39.92-.77,1.84-1.15,2.77Zm2.32-5.53l-.92-.4c.4-.92.8-1.84,1.2-2.75l.92.4c-.4.91-.8,1.83-1.2,2.75Zm2.41-5.48l-.91-.41c.41-.91.83-1.82,1.25-2.73l.91.42c-.42.91-.83,1.81-1.24,2.73Zm2.51-5.44l-.9-.43c.43-.91.86-1.81,1.29-2.71l.9.43c-.43.9-.86,1.8-1.29,2.7Zm2.61-5.39l-.9-.44c.45-.9.89-1.79,1.34-2.69l.89.45c-.45.89-.9,1.78-1.34,2.68Zm2.71-5.35l-.89-.46c.46-.89.93-1.78,1.39-2.66l.88.47c-.47.88-.93,1.77-1.39,2.65Zm2.8-5.29l-.88-.48c.48-.88.96-1.76,1.44-2.63l.88.48c-.48.87-.96,1.75-1.44,2.63Zm2.9-5.24l-.87-.49c.49-.87.99-1.74,1.49-2.61l.87.5c-.5.86-1,1.73-1.49,2.6Zm3-5.18l-.86-.51c.51-.86,1.03-1.72,1.54-2.58l.86.52c-.52.85-1.03,1.71-1.54,2.57Zm3.11-5.12l-.85-.53c.53-.85,1.06-1.7,1.6-2.55l.84.54c-.53.84-1.06,1.69-1.59,2.54Zm3.21-5.06l-.84-.54c.55-.84,1.09-1.68,1.65-2.51l.83.55c-.55.83-1.1,1.67-1.64,2.5Zm3.31-4.99l-.83-.56c.56-.83,1.13-1.66,1.7-2.48l.82.57c-.57.82-1.13,1.64-1.69,2.47Zm3.41-4.92l-.82-.58c.58-.82,1.17-1.63,1.75-2.44l.81.59c-.59.81-1.17,1.62-1.75,2.43Zm3.52-4.85l-.8-.6c.6-.81,1.2-1.61,1.8-2.4l.8.61c-.6.79-1.2,1.59-1.8,2.39Zm3.62-4.77l-.79-.61c.61-.79,1.23-1.58,1.86-2.36l.78.62c-.62.78-1.24,1.57-1.85,2.35Zm3.73-4.69l-.78-.63c.63-.78,1.27-1.55,1.91-2.32l.77.64c-.64.77-1.27,1.54-1.9,2.31Zm3.83-4.6l-.76-.65c.65-.76,1.31-1.52,1.96-2.28l.75.66c-.66.75-1.31,1.51-1.96,2.27Zm3.94-4.51l-.75-.67c.67-.75,1.34-1.49,2.02-2.23l.74.68c-.67.74-1.34,1.48-2.01,2.22Zm4.04-4.42l-.73-.68c.69-.73,1.38-1.46,2.07-2.18l.72.69c-.69.72-1.38,1.44-2.06,2.17Zm4.15-4.32l-.71-.7c.7-.71,1.41-1.42,2.12-2.13l.7.71c-.71.7-1.41,1.41-2.11,2.12Zm4.25-4.21l-.7-.72c.72-.7,1.45-1.39,2.18-2.08l.69.73c-.73.68-1.45,1.37-2.17,2.07Zm4.35-4.1l-.68-.74c.73-.68,1.47-1.35,2.22-2.01l.67.75c-.74.66-1.48,1.33-2.21,2Zm4.44-3.98l-.66-.75c.75-.66,1.51-1.31,2.27-1.95l.65.76c-.76.64-1.51,1.29-2.26,1.95Zm4.55-3.86l-.64-.77c.77-.64,1.54-1.27,2.32-1.89l.63.78c-.77.62-1.54,1.25-2.31,1.89Zm4.65-3.74l-.62-.79c.79-.62,1.58-1.23,2.37-1.83l.61.8c-.79.6-1.58,1.21-2.36,1.82Zm4.75-3.62l-.6-.8c.8-.6,1.61-1.19,2.42-1.77l.58.81c-.81.58-1.61,1.17-2.41,1.76Zm4.85-3.49l-.57-.82c.82-.57,1.65-1.14,2.47-1.7l.56.83c-.82.56-1.64,1.12-2.46,1.69Zm4.95-3.36l-.55-.84c.84-.55,1.68-1.1,2.52-1.63l.54.84c-.84.54-1.68,1.08-2.51,1.62Zm5.04-3.22l-.53-.85c.85-.53,1.71-1.05,2.57-1.56l.51.86c-.86.51-1.71,1.03-2.56,1.56Zm5.14-3.07l-.5-.87c.87-.5,1.74-1,2.62-1.49l.49.87c-.87.49-1.74.98-2.6,1.48Zm5.23-2.93l-.48-.88c.88-.48,1.77-.95,2.66-1.41l.46.89c-.89.46-1.77.93-2.65,1.41Zm5.31-2.78l-.45-.89c.9-.45,1.8-.9,2.7-1.34l.44.9c-.9.44-1.8.88-2.69,1.33Zm5.4-2.62l-.42-.91c.91-.43,1.82-.85,2.74-1.26l.41.91c-.91.41-1.82.83-2.73,1.25Zm5.48-2.46l-.4-.92c.92-.4,1.84-.79,2.77-1.17l.38.92c-.92.38-1.84.77-2.75,1.17Zm5.53-2.29l-.37-.93c.93-.37,1.86-.73,2.8-1.09l.36.93c-.93.36-1.86.72-2.79,1.09Zm5.59-2.13l-.34-.94c.94-.34,1.89-.68,2.83-1.01l.33.94c-.94.33-1.88.66-2.82,1Zm5.65-1.96l-.31-.95c.95-.31,1.9-.62,2.86-.92l.3.95c-.95.3-1.9.61-2.85.92Zm5.71-1.8l-.29-.96c.96-.29,1.92-.57,2.89-.84l.27.96c-.96.27-1.92.55-2.87.84Zm5.76-1.63l-.26-.97c.97-.26,1.94-.51,2.91-.75l.24.97c-.97.24-1.93.49-2.9.75Zm5.8-1.46l-.23-.97c.97-.23,1.95-.45,2.93-.67l.22.98c-.98.22-1.95.44-2.92.67Z"></path><path class="cls-2" d="m208.92,440.21l-1-.05c.05-1.01.1-2.01.16-3l1,.06c-.06.99-.11,1.99-.16,2.99Zm.36-5.97l-1-.07c.07-1,.15-2,.24-3l1,.09c-.09.99-.16,1.98-.24,2.98Zm.51-5.96l-.99-.1c.1-1,.21-2,.32-2.99l.99.11c-.11.98-.22,1.98-.32,2.97Zm.68-5.95l-.99-.13c.13-1,.26-1.99.4-2.98l.99.14c-.14.98-.27,1.97-.4,2.96Zm.84-5.92l-.99-.15c.16-1,.32-1.98.49-2.97l.99.17c-.17.98-.33,1.96-.48,2.95Zm200.33-4.76l-.99-.11c.05-.45.1-.89.15-1.34l-.88.29c-.31-.95-.63-1.9-.95-2.84l.95-.32c.31.9.61,1.8.91,2.71.06-.5.12-1,.19-1.5l.99.13c-.13.98-.25,1.97-.36,2.96Zm-199.32-1.14l-.98-.18c.18-.99.38-1.98.57-2.95l.98.2c-.2.97-.39,1.95-.57,2.94Zm200.12-4.77l-.99-.17c.17-1,.35-1.99.55-2.97l.98.2c-.2.97-.38,1.94-.54,2.93Zm-4.47-.91c-.33-.94-.67-1.88-1.01-2.82l.94-.34c.34.94.68,1.88,1.02,2.83l-.94.33Zm-194.47-.18l-.98-.21c.21-.98.43-1.96.66-2.93l.97.23c-.23.97-.44,1.94-.66,2.92Zm200.13-4.75l-.97-.23c.24-.99.49-1.96.76-2.92l.96.27c-.27.95-.52,1.91-.75,2.88Zm-7.71-.69c-.35-.94-.71-1.87-1.08-2.79l.93-.36c.36.93.72,1.86,1.08,2.8l-.94.35Zm-191.06-.39l-.97-.24c.24-.98.5-1.95.75-2.91l.97.26c-.26.96-.5,1.92-.75,2.9Zm200.39-4.66l-.95-.31c.32-.96.65-1.91,1-2.85l.94.35c-.35.92-.68,1.86-.99,2.81Zm-11.52-.53c-.38-.93-.76-1.85-1.14-2.77l.92-.39c.39.92.77,1.85,1.15,2.78l-.93.38Zm-187.33-.59l-.96-.27c.28-.97.56-1.93.84-2.89l.96.29c-.29.95-.56,1.91-.84,2.87Zm200.96-4.44l-.92-.4c.4-.93.83-1.85,1.27-2.74l.9.44c-.43.88-.86,1.78-1.25,2.7Zm-15.95-.49c-.4-.92-.8-1.83-1.21-2.74l.91-.41c.41.91.81,1.83,1.21,2.75l-.92.4Zm-183.29-.8l-.95-.3c.31-.96.62-1.91.94-2.86l.95.32c-.32.94-.63,1.89-.93,2.84Zm201.88-4.03l-.87-.49c.49-.88,1.02-1.75,1.56-2.6l.84.54c-.53.83-1.05,1.69-1.53,2.55Zm-21.04-.63c-.42-.91-.85-1.81-1.28-2.71l.9-.43c.43.9.86,1.81,1.28,2.72l-.91.42Zm-178.93-1.01l-.94-.33c.34-.95.68-1.89,1.03-2.83l.94.35c-.35.93-.69,1.87-1.02,2.81Zm203.18-3.37l-.81-.59c.59-.82,1.22-1.63,1.85-2.4l.77.63c-.62.76-1.23,1.55-1.81,2.35Zm-26.84-1.02c-.44-.9-.89-1.79-1.35-2.67l.89-.46c.46.89.91,1.78,1.36,2.68l-.9.45Zm-174.25-1.22l-.93-.37c.37-.94.74-1.87,1.12-2.79l.92.38c-.38.92-.75,1.84-1.12,2.77Zm204.85-2.35l-.73-.68c.68-.73,1.39-1.46,2.12-2.16l.69.72c-.71.68-1.41,1.4-2.08,2.12Zm-33.33-1.76c-.47-.88-.94-1.76-1.42-2.63l.88-.48c.48.88.96,1.76,1.43,2.65l-.88.47Zm-169.23-1.42l-.92-.4c.4-.93.81-1.84,1.22-2.75l.91.41c-.41.9-.81,1.81-1.21,2.73Zm206.85-.92l-.65-.76c.76-.65,1.56-1.28,2.36-1.89l.6.8c-.79.59-1.57,1.22-2.32,1.85Zm-40.5-2.9c-.5-.87-.99-1.73-1.5-2.59l.86-.51c.51.86,1.01,1.73,1.5,2.6l-.87.49Zm45.24-.67l-.55-.83c.83-.55,1.69-1.09,2.56-1.61l.51.86c-.85.5-1.7,1.03-2.52,1.58Zm-209.12-.96l-.9-.43c.43-.91.87-1.81,1.31-2.71l.9.44c-.44.89-.88,1.78-1.3,2.69Zm214.24-2.06l-.46-.89c.88-.46,1.79-.9,2.71-1.33l.42.91c-.91.42-1.81.86-2.67,1.31Zm-53.39-1.47c-.52-.85-1.05-1.7-1.57-2.55l.85-.53c.53.85,1.06,1.7,1.58,2.56l-.85.52Zm58.79-1.02l-.38-.93c.92-.37,1.86-.73,2.82-1.07l.33.94c-.95.34-1.88.69-2.78,1.05Zm-216.98-.81l-.89-.46c.46-.9.93-1.78,1.41-2.66l.88.48c-.47.87-.94,1.75-1.4,2.64Zm222.59-1.18l-.29-.96c.57-.17,1.14-.34,1.72-.51l.03-.5,1,.05-.07,1.22-.34.1c-.69.19-1.37.39-2.04.6Zm-67.59-2.06c-.54-.84-1.09-1.67-1.65-2.49l.83-.56c.56.83,1.11,1.67,1.66,2.51l-.84.54Zm-152.17-2.03l-.87-.49c.49-.88.99-1.75,1.5-2.61l.86.51c-.5.85-1,1.72-1.49,2.59Zm222.32-.84l-1-.03c.03-1,.05-2,.05-2.99h1c0,1-.02,2.01-.05,3.02Zm-73.5-2.1c-.57-.82-1.15-1.64-1.73-2.44l.81-.58c.58.81,1.16,1.63,1.74,2.46l-.82.57Zm-145.8-2.22l-.85-.52c.53-.86,1.06-1.71,1.59-2.55l.84.54c-.53.84-1.06,1.68-1.58,2.54Zm218.33-1.68c-.02-1-.05-2-.09-2.99l1-.04c.04,1,.07,2,.09,3.01l-1,.02Zm-76.02-.95c-.6-.8-1.2-1.6-1.81-2.39l.79-.61c.61.79,1.21,1.59,1.82,2.4l-.8.6Zm-139.1-2.41l-.83-.55c.56-.84,1.12-1.68,1.68-2.5l.82.57c-.56.82-1.12,1.64-1.67,2.48Zm135.45-2.33c-.62-.78-1.25-1.56-1.88-2.32l.77-.64c.64.77,1.27,1.55,1.89,2.34l-.78.62Zm79.41-.27c-.07-1-.16-1.99-.25-2.98l1-.1c.1.99.18,1.99.25,3l-1,.07Zm-211.48-2.33l-.81-.58c.59-.82,1.18-1.63,1.77-2.43l.8.6c-.59.79-1.17,1.6-1.76,2.42Zm410.87-.83l-.36-.4.74-.67.37.41-.75.66Zm-282.6-1.18c-.65-.76-1.3-1.51-1.96-2.26l.75-.66c.66.75,1.32,1.51,1.97,2.27l-.76.65Zm280.22-1.43c-.68-.73-1.37-1.45-2.06-2.17l.72-.69c.7.72,1.38,1.45,2.07,2.19l-.73.68Zm-197.6-.17c-.13-.99-.27-1.98-.43-2.95l.99-.16c.16.99.31,1.98.44,2.98l-.99.13Zm-207.32-1.2l-.79-.61c.62-.8,1.24-1.59,1.86-2.37l.78.62c-.62.77-1.23,1.56-1.84,2.35Zm120.74-1.69c-.67-.74-1.35-1.47-2.04-2.19l.73-.69c.69.73,1.37,1.46,2.05,2.2l-.74.67Zm280.03-1.26c-.7-.71-1.41-1.41-2.12-2.11l.7-.71c.72.7,1.43,1.41,2.14,2.12l-.71.7Zm-397.04-1.73l-.77-.64c.65-.78,1.29-1.55,1.94-2.3l.76.65c-.64.75-1.29,1.51-1.93,2.29Zm202.63,0c-.2-.98-.41-1.95-.64-2.91l.97-.23c.23.97.45,1.96.64,2.95l-.98.2Zm-89.72-1.34c-.7-.71-1.4-1.41-2.11-2.11l.7-.71c.71.7,1.42,1.41,2.12,2.12l-.71.7Zm279.85-1.12c-.72-.69-1.45-1.37-2.19-2.05l.68-.73c.74.68,1.47,1.37,2.2,2.06l-.69.72Zm-388.87-2.08l-.75-.66c.67-.76,1.35-1.5,2.02-2.23l.73.68c-.67.73-1.34,1.46-2.01,2.22Zm104.76-.99c-.72-.69-1.45-1.36-2.18-2.04l.68-.74c.74.68,1.47,1.36,2.19,2.05l-.69.72Zm92.59-.27c-.27-.96-.55-1.91-.85-2.85l.95-.31c.31.95.6,1.92.87,2.89l-.96.27Zm187.11-.73c-.74-.67-1.49-1.33-2.25-1.99l.66-.75c.76.66,1.51,1.33,2.25,2l-.67.74Zm-380.4-2.4l-.72-.69c.7-.73,1.4-1.45,2.1-2.16l.71.7c-.69.7-1.39,1.41-2.09,2.14Zm96.3-.63c-.75-.66-1.5-1.31-2.25-1.96l.65-.76c.76.65,1.52,1.31,2.27,1.97l-.66.75Zm279.58-.91c-.76-.65-1.53-1.29-2.3-1.92l.64-.77c.77.64,1.54,1.28,2.31,1.93l-.65.76Zm-184.42-1.01c-.34-.93-.71-1.86-1.09-2.77l.92-.39c.39.93.76,1.87,1.11,2.81l-.94.35Zm-187.25-1.7l-.7-.72c.73-.71,1.45-1.4,2.18-2.08l.68.73c-.72.67-1.44,1.36-2.16,2.07Zm87.55-.26c-.77-.63-1.55-1.26-2.32-1.88l.62-.78c.79.62,1.56,1.25,2.34,1.89l-.63.77Zm279.49-.84c-.78-.62-1.56-1.24-2.35-1.86l.61-.79c.79.62,1.58,1.24,2.37,1.87l-.62.78Zm-182.09-2.69c-.42-.89-.87-1.79-1.33-2.66l.88-.47c.47.89.92,1.8,1.35,2.7l-.9.43Zm-102.09-.18c-.79-.61-1.59-1.2-2.39-1.8l.59-.81c.81.6,1.61,1.2,2.41,1.81l-.61.79Zm-78.5-.12l-.67-.74c.75-.68,1.5-1.35,2.25-2l.66.75c-.74.65-1.49,1.31-2.24,1.99Zm357.94-.69c-.8-.6-1.6-1.2-2.4-1.79l.59-.81c.81.6,1.61,1.2,2.41,1.8l-.6.8Zm-284.26-2.74c-.81-.58-1.63-1.15-2.46-1.71l.56-.83c.83.57,1.65,1.14,2.47,1.72l-.58.82Zm-69.17-.5l-.64-.77c.78-.66,1.56-1.29,2.32-1.92l.63.78c-.76.62-1.53,1.25-2.31,1.9Zm348.6-.31c-.81-.58-1.63-1.16-2.45-1.73l.57-.82c.82.57,1.64,1.15,2.46,1.74l-.58.81Zm-175.3-.71c-.5-.84-1.02-1.69-1.57-2.53l.84-.55c.55.85,1.09,1.71,1.59,2.57l-.86.51Zm-109.07-1.85c-.83-.55-1.67-1.09-2.52-1.62l.53-.85c.85.54,1.7,1.08,2.53,1.63l-.55.84Zm279.46-.87c-.83-.56-1.66-1.11-2.49-1.66l.55-.84c.84.55,1.67,1.11,2.51,1.67l-.56.83Zm-339.03-.02l-.62-.79c.81-.63,1.61-1.24,2.39-1.83l.6.8c-.78.59-1.58,1.19-2.38,1.82Zm165.39-2.23c-.58-.8-1.18-1.59-1.8-2.37l.78-.62c.63.79,1.24,1.6,1.83,2.41l-.81.59Zm-110.88-.08c-.85-.52-1.71-1.03-2.58-1.53l.5-.86c.87.51,1.73,1.02,2.59,1.54l-.52.85Zm279.51-.96c-.84-.54-1.69-1.07-2.54-1.6l.53-.85c.85.53,1.7,1.07,2.55,1.61l-.54.84Zm-329.23-.32l-.58-.81c.84-.6,1.66-1.18,2.46-1.74l.57.82c-.8.55-1.62,1.13-2.45,1.73Zm44.54-1.75c-.87-.49-1.75-.97-2.63-1.44l.47-.88c.89.48,1.77.96,2.64,1.45l-.49.87Zm279.6-1.11c-.85-.52-1.71-1.03-2.58-1.54l.51-.86c.86.51,1.73,1.02,2.58,1.54l-.52.86Zm-167.24-.44c-.64-.73-1.32-1.47-2.01-2.19l.72-.69c.7.73,1.39,1.48,2.04,2.22l-.75.66Zm-151.97-.11l-.55-.83c.87-.57,1.71-1.12,2.53-1.64l.54.84c-.81.51-1.65,1.06-2.51,1.63Zm34.33-1.19c-.88-.46-1.77-.91-2.67-1.35l.44-.9c.9.45,1.79.9,2.68,1.36l-.46.89Zm279.71-1.3c-.87-.5-1.74-.99-2.61-1.47l.49-.87c.88.49,1.75.98,2.62,1.48l-.5.87Zm-308.98-.72l-.52-.86c.91-.55,1.78-1.06,2.6-1.53l.5.87c-.82.47-1.68.97-2.58,1.52Zm23.91-.64c-.9-.43-1.8-.85-2.71-1.26l.41-.91c.92.42,1.82.84,2.73,1.27l-.43.9Zm118.87-.33c-.71-.68-1.45-1.35-2.2-2l.66-.75c.77.67,1.51,1.34,2.23,2.03l-.69.72Zm160.96-1.22c-.88-.47-1.76-.94-2.65-1.41l.46-.89c.89.47,1.77.94,2.66,1.41l-.47.88Zm-298.54-.78l-.48-.88c1-.54,1.89-1.01,2.68-1.4l.45.89c-.78.39-1.67.86-2.65,1.39Zm13.27-.14c-.91-.4-1.83-.79-2.75-1.17l.38-.92c.93.39,1.85.78,2.77,1.18l-.4.92Zm119.83-1.76c-.77-.61-1.55-1.22-2.36-1.81l.59-.81c.82.6,1.62,1.22,2.39,1.84l-.62.78Zm160.13-.09c-.89-.45-1.78-.9-2.68-1.34l.44-.9c.9.44,1.8.89,2.69,1.35l-.45.89Zm-285.48-.44c-.52-.21-1.05-.41-1.57-.62-.17.07-.44.19-.82.37l-.42-.91c1.22-.56,1.22-.56,1.45-.44.55.21,1.14.44,1.73.68l-.37.93Zm280.11-2.21c-.9-.43-1.8-.86-2.71-1.28l.42-.91c.91.42,1.82.85,2.72,1.28l-.43.9Zm-159.55-.78c-.81-.55-1.65-1.09-2.5-1.63l.53-.85c.86.54,1.7,1.09,2.53,1.65l-.56.83Zm154.11-1.74c-.91-.41-1.82-.82-2.74-1.22l.4-.92c.92.4,1.84.81,2.75,1.22l-.41.91Zm-159.16-1.42c-.85-.49-1.72-.98-2.61-1.45l.47-.88c.9.48,1.77.97,2.63,1.47l-.5.87Zm153.67-.98c-.92-.39-1.84-.77-2.77-1.15l.38-.93c.93.38,1.85.77,2.78,1.16l-.39.92Zm-158.93-1.84c-.88-.44-1.78-.86-2.69-1.28l.42-.91c.92.42,1.83.86,2.72,1.3l-.44.9Zm153.38-.43c-.93-.37-1.86-.73-2.79-1.09l.36-.93c.94.36,1.87.72,2.8,1.09l-.37.93Zm-158.8-2.06c-.91-.38-1.83-.76-2.76-1.13l.37-.93c.94.37,1.87.75,2.79,1.14l-.39.92Zm153.21-.08c-.94-.35-1.87-.69-2.81-1.02l.34-.94c.94.34,1.89.68,2.83,1.03l-.35.94Zm-5.64-2.01c-.95-.32-1.89-.64-2.84-.96l.31-.95c.95.32,1.9.64,2.85.96l-.32.95Zm-153.12-.09c-.92-.34-1.86-.67-2.82-.99l.32-.95c.96.33,1.91.66,2.84,1l-.34.94Zm147.44-1.79c-.95-.3-1.9-.6-2.86-.89l.29-.96c.96.29,1.91.59,2.87.9l-.3.95Zm-149.76-.22l-.35-.94c.94-.35,1.88-.7,2.83-1.03l.33.94c-.94.33-1.88.68-2.81,1.03Zm144.04-1.54c-.96-.28-1.92-.56-2.88-.83l.27-.96c.96.27,1.93.55,2.89.83l-.28.96Zm-138.41-.46l-.32-.95c.95-.32,1.9-.63,2.86-.93l.3.95c-.95.3-1.9.61-2.84.93Zm132.65-1.17c-.96-.26-1.93-.52-2.89-.77l.25-.97c.97.25,1.94.51,2.9.77l-.26.97Zm-126.95-.64l-.29-.96c.96-.29,1.92-.57,2.89-.84l.27.96c-.96.27-1.92.55-2.87.83Zm121.15-.85c-.97-.24-1.94-.47-2.91-.7l.23-.97c.97.23,1.95.46,2.92.7l-.24.97Zm-115.4-.77l-.26-.97c.97-.26,1.94-.5,2.91-.75l.24.97c-.97.24-1.93.49-2.9.74Zm109.57-.6c-.97-.22-1.95-.43-2.92-.63l.21-.98c.98.21,1.96.42,2.93.64l-.22.98Zm-103.77-.84l-.22-.97c.97-.23,1.95-.44,2.93-.65l.21.98c-.98.21-1.95.43-2.92.65Zm97.91-.39c-.98-.19-1.96-.38-2.94-.57l.18-.98c.98.18,1.97.37,2.95.57l-.2.98Zm-92.07-.86l-.2-.98c.98-.2,1.96-.38,2.95-.56l.18.98c-.98.18-1.96.37-2.94.56Zm86.19-.24c-.98-.17-1.97-.34-2.95-.5l.16-.99c.99.16,1.97.33,2.96.5l-.17.99Zm-80.31-.84l-.17-.99c.99-.17,1.98-.33,2.97-.48l.15.99c-.99.15-1.97.31-2.95.48Zm74.41-.12c-.99-.15-1.97-.29-2.96-.43l.14-.99c.99.14,1.98.28,2.97.43l-.15.99Zm-68.5-.79l-.14-.99c.99-.14,1.98-.27,2.98-.39l.12.99c-.99.12-1.98.25-2.96.39Zm62.58-.04c-.99-.13-1.98-.25-2.97-.36l.12-.99c.99.12,1.98.24,2.98.36l-.13.99Zm-5.93-.69c-.99-.1-1.98-.2-2.97-.29l.09-1c.99.09,1.99.19,2.98.3l-.1.99Zm-50.71,0l-.11-.99c.99-.11,1.99-.21,2.99-.31l.1,1c-.99.1-1.98.2-2.97.31Zm44.76-.55c-.99-.08-1.99-.16-2.98-.22l.07-1c1,.07,1.99.14,2.99.22l-.08,1Zm-38.81-.03l-.08-1c1-.08,1.99-.16,3-.23l.07,1c-1,.07-1.99.15-2.98.23Zm32.85-.38c-.99-.06-1.99-.11-2.98-.15l.04-1c1,.04,2,.1,2.99.15l-.06,1Zm-26.88-.03l-.06-1c1-.06,2-.11,3-.15l.04,1c-1,.04-1.99.09-2.99.15Zm20.92-.24c-1-.03-1.99-.06-2.98-.08l.02-1c1,.02,2,.05,3,.08l-.03,1Zm-14.94-.02l-.03-1c1-.03,2-.05,3-.07l.02,1c-1,.02-2,.04-2.99.07Zm8.97-.1c-.63,0-1.25,0-1.88,0h-1.1s0-1,0-1h1.11c.63,0,1.26,0,1.89,0v1Z"></path><path class="cls-2" d="m374.22,443.76c-.05-.64-.09-1.28-.15-1.91l1-.08c.05.64.1,1.28.15,1.92l-1,.07Zm-.41-4.89c-.09-.99-.19-1.98-.3-2.97l.99-.11c.11.99.21,1.99.3,2.98l-1,.09Zm-.63-5.94c-.12-.99-.24-1.98-.37-2.97l.99-.13c.13.99.25,1.99.37,2.98l-.99.12Zm-.78-5.94c-.14-.99-.29-1.98-.45-2.96l.99-.16c.16.99.3,1.98.45,2.97l-.99.14Zm-.93-5.91c-.17-.98-.34-1.97-.52-2.95l.98-.18c.18.98.36,1.97.53,2.96l-.99.17Zm-1.08-5.89c-.19-.98-.39-1.95-.6-2.92l.98-.21c.21.98.41,1.95.6,2.94l-.98.19Zm-1.23-5.84c-.22-.97-.44-1.94-.67-2.91l.97-.23c.23.97.46,1.94.68,2.92l-.98.22Zm-1.39-5.81c-.24-.97-.49-1.93-.75-2.89l.97-.26c.26.97.51,1.93.75,2.9l-.97.24Zm-1.54-5.77c-.27-.96-.54-1.92-.83-2.87l.96-.28c.28.96.56,1.92.83,2.88l-.96.27Zm-1.69-5.73c-.29-.95-.59-1.9-.9-2.85l.95-.31c.31.95.61,1.91.91,2.86l-.95.29Zm-1.84-5.69c-.32-.94-.65-1.89-.98-2.83l.94-.33c.33.94.66,1.89.98,2.84l-.95.32Zm-1.99-5.64c-.34-.94-.69-1.87-1.05-2.8l.93-.36c.36.94.71,1.87,1.06,2.81l-.94.34Zm-2.14-5.59c-.37-.93-.74-1.85-1.12-2.77l.92-.38c.38.93.76,1.85,1.13,2.79l-.93.37Zm-2.28-5.53c-.39-.92-.79-1.83-1.2-2.75l.91-.41c.41.92.81,1.84,1.2,2.76l-.92.39Zm-2.43-5.47c-.42-.91-.84-1.81-1.27-2.71l.9-.43c.43.91.85,1.81,1.27,2.73l-.91.42Zm-2.57-5.41c-.44-.9-.88-1.79-1.34-2.68l.89-.45c.45.9.9,1.79,1.34,2.69l-.9.44Zm-2.7-5.35c-.46-.89-.93-1.77-1.4-2.65l.88-.47c.48.88.95,1.77,1.41,2.66l-.89.46Zm-2.84-5.28c-.48-.87-.97-1.75-1.47-2.61l.87-.5c.5.87.99,1.75,1.47,2.63l-.88.48Zm-2.97-5.21c-.5-.86-1.02-1.72-1.53-2.58l.86-.52c.52.86,1.03,1.72,1.54,2.59l-.86.5Zm-3.09-5.14c-.52-.85-1.06-1.7-1.59-2.54l.84-.54c.54.85,1.07,1.7,1.6,2.55l-.85.53Zm-3.22-5.07c-.55-.84-1.1-1.67-1.65-2.51l.83-.56c.56.84,1.11,1.68,1.66,2.52l-.84.54Zm-3.33-4.99c-.57-.83-1.14-1.65-1.71-2.47l.82-.57c.58.82,1.15,1.65,1.72,2.48l-.82.57Zm-3.45-4.92c-.58-.81-1.17-1.62-1.77-2.43l.81-.59c.6.81,1.19,1.62,1.77,2.44l-.81.58Zm-3.56-4.84c-.6-.8-1.2-1.59-1.81-2.38l.79-.61c.61.8,1.22,1.59,1.82,2.39l-.8.6Zm-3.65-4.75c-.62-.78-1.24-1.57-1.86-2.35l.78-.63c.63.78,1.25,1.57,1.87,2.35l-.79.62Zm-3.75-4.67c-.63-.77-1.27-1.54-1.91-2.31l.77-.64c.64.77,1.28,1.54,1.92,2.31l-.77.63Zm-3.84-4.6c-.65-.76-1.3-1.51-1.96-2.27l.75-.66c.66.76,1.31,1.52,1.96,2.28l-.76.65Zm-3.93-4.52c-.66-.75-1.33-1.49-2-2.23l.74-.67c.67.74,1.34,1.49,2.01,2.24l-.75.66Zm-4.02-4.44c-.68-.73-1.36-1.46-2.04-2.19l.73-.68c.69.73,1.37,1.46,2.05,2.2l-.73.68Zm-4.1-4.37c-.69-.72-1.38-1.44-2.08-2.15l.72-.7c.7.72,1.4,1.44,2.09,2.16l-.72.69Z"></path><path class="cls-2" d="m553.52,443.88c-.31-.96-.63-1.9-.95-2.84l.95-.33c.32.94.64,1.89.95,2.85l-.95.31Zm-121.49-.13c-.04-.92-.08-1.84-.11-2.75l1-.03c.03.91.07,1.82.11,2.74l-1,.05Zm119.55-5.52c-.34-.94-.69-1.88-1.05-2.8l.93-.36c.36.93.71,1.87,1.06,2.82l-.94.34Zm-119.73-.24c-.02-1.01-.03-2.01-.03-3.01h1c0,.99,0,1.99.03,2.99l-1,.02Zm117.58-5.34c-.38-.93-.77-1.85-1.16-2.76l.92-.4c.39.91.78,1.84,1.16,2.77l-.93.38Zm-116.59-.66l-1-.02c.02-1.01.04-2.01.07-3.01l1,.03c-.03.99-.06,1.99-.07,2.99Zm114.22-4.83c-.42-.91-.84-1.82-1.26-2.71l.9-.43c.43.9.85,1.81,1.27,2.73l-.91.41Zm-114.03-1.15l-1-.05c.05-1.01.11-2.01.18-3l1,.07c-.07.99-.13,1.99-.18,2.99Zm111.44-4.24c-.45-.9-.91-1.78-1.38-2.65l.88-.47c.47.88.93,1.77,1.39,2.67l-.89.45Zm-111.03-1.73l-1-.09c.09-1,.18-2,.29-3l.99.11c-.11.99-.2,1.98-.29,2.98Zm108.22-3.54c-.49-.88-.99-1.74-1.49-2.59l.86-.51c.51.86,1.01,1.73,1.5,2.61l-.87.49Zm-107.59-2.4l-.99-.12c.12-1,.26-1.99.41-2.98l.99.15c-.14.98-.28,1.97-.4,2.96Zm104.55-2.74c-.53-.85-1.07-1.69-1.61-2.52l.84-.55c.54.83,1.08,1.68,1.62,2.54l-.85.53Zm-103.69-3.17l-.99-.16c.17-.99.34-1.98.53-2.96l.98.19c-.18.98-.36,1.96-.52,2.94Zm100.41-1.82c-.57-.83-1.14-1.64-1.72-2.44l.81-.59c.58.81,1.16,1.62,1.74,2.46l-.82.57Zm-99.31-4.05l-.98-.2c.21-.98.42-1.96.65-2.93l.97.23c-.22.97-.44,1.94-.64,2.91Zm95.8-.78c-.61-.8-1.22-1.58-1.84-2.35l.78-.63c.62.78,1.24,1.57,1.86,2.37l-.79.61Zm-3.74-4.66c-.65-.77-1.3-1.52-1.96-2.26l.75-.67c.66.74,1.32,1.5,1.97,2.27l-.76.65Zm-90.71-.37l-.97-.25c.25-.97.51-1.94.78-2.9l.96.27c-.27.96-.52,1.92-.77,2.88Zm86.74-4.09c-.69-.73-1.38-1.45-2.07-2.15l.71-.7c.7.71,1.4,1.43,2.09,2.17l-.73.68Zm-85.14-1.66l-.96-.29c.29-.96.59-1.92.9-2.87l.95.31c-.31.94-.61,1.89-.9,2.85Zm80.94-2.59c-.72-.7-1.45-1.38-2.18-2.04l.67-.74c.74.67,1.47,1.36,2.2,2.06l-.69.72Zm-79.08-3.08l-.94-.33c.34-.95.68-1.89,1.04-2.82l.94.36c-.35.93-.7,1.86-1.03,2.8Zm74.66-.93c-.76-.66-1.52-1.3-2.29-1.92l.63-.77c.77.63,1.54,1.28,2.31,1.94l-.65.76Zm-4.62-3.78c-.8-.61-1.59-1.21-2.39-1.79l.59-.81c.8.59,1.61,1.19,2.41,1.81l-.61.79Zm-67.92-.87l-.93-.38c.38-.93.77-1.85,1.17-2.77l.92.4c-.4.91-.78,1.83-1.16,2.75Zm63.1-2.66c-.83-.57-1.66-1.13-2.48-1.66l.55-.84c.83.54,1.67,1.1,2.5,1.68l-.57.82Zm-60.72-2.82l-.91-.42c.42-.91.85-1.82,1.3-2.72l.9.44c-.44.89-.87,1.79-1.29,2.7Zm55.71-.44c-.86-.53-1.71-1.04-2.57-1.53l.5-.87c.86.5,1.72,1.01,2.59,1.54l-.52.85Zm-5.17-2.99c-.89-.48-1.77-.94-2.65-1.39l.45-.89c.88.45,1.77.91,2.67,1.4l-.48.88Zm-47.9-1.93l-.89-.46c.46-.89.94-1.77,1.43-2.65l.88.48c-.48.87-.95,1.75-1.42,2.63Zm42.57-.77c-.91-.43-1.82-.85-2.72-1.24l.4-.91c.9.4,1.82.82,2.74,1.26l-.43.9Zm-5.46-2.41c-.94-.38-1.87-.75-2.78-1.1l.36-.93c.92.35,1.86.72,2.8,1.11l-.38.92Zm-34.22-2.04l-.86-.5c.51-.87,1.02-1.73,1.55-2.58l.85.52c-.52.85-1.04,1.7-1.54,2.56Zm28.63-.08c-.96-.34-1.91-.65-2.83-.95l.3-.95c.93.3,1.89.62,2.86.96l-.33.94Zm-5.7-1.82c-.99-.29-1.95-.55-2.88-.79l.25-.97c.94.24,1.91.51,2.91.8l-.28.96Zm-5.79-1.5c-1.02-.23-2-.44-2.92-.63l.2-.98c.94.19,1.92.4,2.95.63l-.22.97Zm-5.87-1.17c-1.08-.18-2.07-.33-2.96-.44l.13-.99c.9.12,1.9.27,2.99.45l-.17.99Zm-8.14-.52l-.84-.55.57-.87h.28s.83.03,2.29.16l-.09,1c-.94-.09-1.6-.12-1.95-.14l-.26.39Z"></path></g><g><g><path class="cls-8" d="m446.15,79.77c0,16.87-21.43,48.32-24.85,48.32s-24.85-30.69-24.85-48.32c0-13.73,11.13-24.85,24.85-24.85s24.85,11.13,24.85,24.85Z"></path><circle class="cls-2" cx="421.3" cy="80.05" r="12.38" transform="translate(246.59 471.69) rotate(-76.72)"></circle><path class="cls-9" d="m421.3,92.93c-7.1,0-12.88-5.78-12.88-12.88s5.78-12.88,12.88-12.88v1c-6.55,0-11.88,5.33-11.88,11.88s5.33,11.88,11.88,11.88,11.88-5.33,11.88-11.88h1c0,7.1-5.78,12.88-12.88,12.88Z"></path></g><g><path class="cls-8" d="m325.97,239.73c0,16.87-21.43,48.32-24.85,48.32s-24.85-30.69-24.85-48.32c0-13.73,11.13-24.85,24.85-24.85s24.85,11.13,24.85,24.85Z"></path><circle class="cls-2" cx="301.12" cy="240.02" r="12.38" transform="translate(-1.66 477.93) rotate(-76.72)"></circle><path class="cls-9" d="m301.11,252.9c-7.1,0-12.88-5.78-12.88-12.88s5.78-12.88,12.88-12.88v1c-6.55,0-11.88,5.33-11.88,11.88s5.33,11.88,11.88,11.88,11.88-5.33,11.88-11.88h1c0,7.1-5.78,12.88-12.88,12.88Z"></path></g><g><path class="cls-8" d="m473.61,319.35c0,13.3-16.89,38.08-19.59,38.08s-19.59-24.19-19.59-38.08c0-10.82,8.77-19.59,19.59-19.59s19.59,8.77,19.59,19.59Z"></path><circle class="cls-2" cx="454.02" cy="319.58" r="9.76"></circle><path class="cls-9" d="m454.02,329.83c-5.66,0-10.26-4.6-10.26-10.26s4.6-10.26,10.26-10.26v1c-5.1,0-9.26,4.15-9.26,9.26s4.15,9.26,9.26,9.26,9.26-4.15,9.26-9.26h1c0,5.65-4.6,10.26-10.26,10.26Z"></path></g><g><path class="cls-8" d="m311,93.33c0,13.3-16.89,38.08-19.59,38.08s-19.59-24.19-19.59-38.08c0-10.82,8.77-19.59,19.59-19.59s19.59,8.77,19.59,19.59Z"></path><circle class="cls-2" cx="291.41" cy="93.55" r="9.76"></circle><path class="cls-9" d="m291.41,103.81c-5.66,0-10.26-4.6-10.26-10.26s4.6-10.26,10.26-10.26v1c-5.1,0-9.26,4.15-9.26,9.26s4.15,9.26,9.26,9.26,9.25-4.15,9.25-9.26h1c0,5.65-4.6,10.26-10.25,10.26Z"></path></g><g><path class="cls-8" d="m264.74,180.9c0,8.66-11,24.8-12.76,24.8s-12.76-15.75-12.76-24.8c0-7.05,5.71-12.76,12.76-12.76s12.76,5.71,12.76,12.76Z"></path><path class="cls-2" d="m258.34,181.05c0,3.51-2.84,6.35-6.35,6.35s-6.35-2.84-6.35-6.35,2.84-6.35,6.35-6.35,6.35,2.84,6.35,6.35Z"></path><path class="cls-9" d="m251.98,187.9c-3.78,0-6.85-3.07-6.85-6.85s3.07-6.85,6.85-6.85v1c-3.23,0-5.85,2.63-5.85,5.85s2.63,5.85,5.85,5.85,5.85-2.63,5.85-5.85h1c0,3.78-3.07,6.85-6.85,6.85Z"></path></g><g><path class="cls-8" d="m410.74,248.84c0,8.66-11,24.8-12.76,24.8s-12.76-15.75-12.76-24.8c0-7.05,5.71-12.76,12.76-12.76s12.76,5.71,12.76,12.76Z"></path><circle class="cls-2" cx="397.98" cy="248.99" r="6.35"></circle><path class="cls-9" d="m397.98,255.84c-3.78,0-6.85-3.07-6.85-6.85s3.07-6.85,6.85-6.85v1c-3.23,0-5.85,2.63-5.85,5.85s2.63,5.85,5.85,5.85,5.85-2.63,5.85-5.85h1c0,3.78-3.07,6.85-6.85,6.85Z"></path></g><g><path class="cls-8" d="m423.81,387.6c0,8.66-11,24.8-12.76,24.8s-12.76-15.75-12.76-24.8c0-7.05,5.71-12.76,12.76-12.76s12.76,5.71,12.76,12.76Z"></path><circle class="cls-2" cx="411.05" cy="387.75" r="6.35"></circle><path class="cls-9" d="m411.05,394.6c-3.78,0-6.85-3.07-6.85-6.85s3.07-6.85,6.85-6.85v1c-3.23,0-5.85,2.63-5.85,5.85s2.63,5.85,5.85,5.85,5.85-2.63,5.85-5.85h1c0,3.78-3.08,6.85-6.85,6.85Z"></path></g></g><g><g><rect class="cls-2" x="505.15" y="421.71" width="174.62" height="8.99" transform="translate(1184.92 852.42) rotate(180)"></rect><rect class="cls-3" x="495.4" y="344.35" width="192.11" height="79.23" rx="3.95" ry="3.95" transform="translate(1182.91 767.93) rotate(180)"></rect><g><path class="cls-2" d="m462.77,386.15h18.55c.8,0,1.46.65,1.46,1.46v18.78c0,.8-.65,1.46-1.46,1.46h-33.4c-.98,0-1.68-.95-1.39-1.9,2.38-7.71,6.01-13.09,8.67-16.27,1.87-2.24,4.65-3.53,7.57-3.53Z"></path><g><polygon class="cls-5" points="478.4 384.8 464.25 409.37 454.16 409.37 468.31 384.8 478.4 384.8"></polygon><polygon class="cls-5" points="461.95 384.8 464.9 384.8 450.75 409.37 447.8 409.37 461.95 384.8"></polygon><polygon class="cls-5" points="484 384.8 486.94 384.8 472.79 409.37 469.85 409.37 484 384.8"></polygon></g><path class="cls-6" d="m440.46,433.79h50.61v-55.08c-14.62-.28-27.22,1.49-32.96,5.1-6.91,4.25-17.67,21.05-17.65,49.97Zm6.07-27.84c2.38-7.71,6.01-13.09,8.67-16.27,1.87-2.24,4.65-3.53,7.57-3.53h18.55c.8,0,1.46.65,1.46,1.46v18.78c0,.8-.65,1.46-1.46,1.46h-33.4c-.98,0-1.68-.95-1.39-1.9Z"></path><rect class="cls-9" x="457.49" y="383.67" width="33.59" height="1"></rect><rect class="cls-9" x="474.8" y="386.15" width="1" height="21.69"></rect><rect class="cls-9" x="439.72" y="426.56" width="8.29" height="8.29" transform="translate(887.73 861.41) rotate(180)"></rect><path class="cls-9" d="m456,433.79h-1c0-8.95,7.28-16.24,16.24-16.24h11.05v-10.5h1v11.5h-12.05c-8.4,0-15.24,6.84-15.24,15.24Z"></path><path class="cls-9" d="m478.17,411.96h-4.68c-.7,0-1.27-.57-1.27-1.27s.57-1.27,1.27-1.27h4.68c.7,0,1.27.57,1.27,1.27s-.57,1.27-1.27,1.27Zm-4.68-1.54c-.15,0-.27.12-.27.27s.12.27.27.27h4.68c.15,0,.27-.12.27-.27s-.12-.27-.27-.27h-4.68Z"></path><rect class="cls-8" x="440.46" y="417.84" width="2.65" height="5.48" rx=".87" ry=".87" transform="translate(883.57 841.15) rotate(180)"></rect><path class="cls-1" d="m456.98,433.79c-.25-6.18,3.51-11.66,9.11-12.77,6.28-1.24,12.5,3.47,13.89,10.52.15.75.23,1.5.26,2.24h-23.27Z"></path><g><ellipse class="cls-9" cx="468.61" cy="433.79" rx="9.09" ry="10.21" transform="translate(-75.13 98.95) rotate(-11.16)"></ellipse><path class="cls-2" d="m464.96,434.51c.45,2.27,2.45,3.78,4.46,3.38,2.02-.4,3.29-2.56,2.84-4.82-.45-2.27-2.45-3.78-4.46-3.38-2.02.4-3.29,2.56-2.84,4.82Z"></path><path class="cls-9" d="m468.73,437.22c-1.49,0-2.85-1.17-3.17-2.83h0c-.18-.89-.03-1.79.41-2.54.45-.77,1.16-1.28,1.98-1.44.83-.16,1.67.04,2.38.58.69.52,1.17,1.3,1.34,2.19.37,1.86-.71,3.65-2.39,3.98-.18.04-.37.05-.55.05Zm-.23-5.86c-.12,0-.24.01-.36.04-.54.11-1.01.45-1.32.97-.32.54-.42,1.19-.29,1.84h0c.26,1.32,1.4,2.21,2.55,1.98,1.15-.23,1.87-1.48,1.61-2.8-.13-.65-.47-1.21-.97-1.59-.37-.28-.8-.43-1.22-.43Z"></path></g></g><rect class="cls-9" x="491.07" y="388.81" width="4.32" height="30.09" transform="translate(986.47 807.71) rotate(180)"></rect><polygon class="cls-9" points="633.46 428.82 597.16 428.82 597.16 423.58 598.16 423.58 598.16 427.82 632.46 427.82 632.46 423.58 633.46 423.58 633.46 428.82"></polygon><rect class="cls-9" x="533.79" y="423.58" width="50.05" height="2.27" transform="translate(1117.63 849.43) rotate(180)"></rect><g><rect class="cls-9" x="679.77" y="354.25" width="1" height="59.43"></rect><rect class="cls-9" x="663.62" y="354.25" width="1" height="59.43"></rect><rect class="cls-9" x="647.47" y="354.25" width="1" height="59.43"></rect><rect class="cls-9" x="631.32" y="354.25" width="1" height="59.43"></rect><rect class="cls-9" x="615.18" y="354.25" width="1" height="59.43"></rect><rect class="cls-9" x="599.03" y="354.25" width="1" height="59.43"></rect><rect class="cls-9" x="582.88" y="354.25" width="1" height="59.43"></rect><rect class="cls-9" x="566.73" y="354.25" width="1" height="59.43"></rect><rect class="cls-9" x="550.59" y="354.25" width="1" height="59.43"></rect><rect class="cls-9" x="534.44" y="354.25" width="1" height="59.43"></rect><rect class="cls-9" x="518.29" y="354.25" width="1" height="59.43"></rect><rect class="cls-9" x="502.14" y="354.25" width="1" height="59.43"></rect></g><polygon class="cls-9" points="680.27 431.2 504.65 431.2 504.65 423.58 505.65 423.58 505.65 430.2 679.27 430.2 679.27 423.58 680.27 423.58 680.27 431.2"></polygon><g><path class="cls-9" d="m509.24,435.55c1.09,5.53,5.97,9.23,10.9,8.25,4.93-.97,8.04-6.24,6.94-11.77-1.09-5.53-5.97-9.23-10.9-8.25-4.93.97-8.04,6.24-6.94,11.77Z"></path><path class="cls-2" d="m514.51,434.51c.45,2.27,2.45,3.78,4.46,3.38,2.02-.4,3.29-2.56,2.84-4.82s-2.45-3.78-4.46-3.38c-2.02.4-3.29,2.56-2.84,4.82Z"></path><path class="cls-9" d="m518.28,437.22c-1.49,0-2.85-1.17-3.17-2.83-.18-.89-.03-1.79.41-2.54.45-.77,1.16-1.28,1.98-1.44.83-.16,1.67.04,2.38.58.69.52,1.17,1.3,1.34,2.19.37,1.86-.71,3.65-2.39,3.98-.18.04-.37.05-.55.05Zm-.23-5.86c-.12,0-.24.01-.36.04-.54.11-1.01.45-1.32.97-.32.54-.42,1.19-.29,1.84h0c.26,1.32,1.4,2.21,2.55,1.98,1.15-.23,1.87-1.48,1.61-2.8-.13-.65-.47-1.21-.97-1.59-.37-.28-.8-.43-1.22-.43Z"></path></g><g><ellipse class="cls-9" cx="647.49" cy="433.79" rx="9.09" ry="10.21" transform="translate(-71.74 133.59) rotate(-11.17)"></ellipse><path class="cls-2" d="m643.84,434.51c.45,2.27,2.45,3.78,4.46,3.38,2.02-.4,3.29-2.56,2.84-4.82-.45-2.27-2.45-3.78-4.46-3.38-2.02.4-3.29,2.56-2.84,4.82Z"></path><path class="cls-9" d="m647.61,437.22c-1.49,0-2.85-1.17-3.17-2.83h0c-.37-1.86.71-3.65,2.39-3.98.83-.16,1.67.04,2.38.58.69.52,1.17,1.3,1.34,2.19.37,1.86-.71,3.65-2.39,3.98-.18.04-.37.05-.55.05Zm-2.19-3.02c.26,1.32,1.4,2.21,2.55,1.98,1.15-.23,1.87-1.48,1.61-2.8-.13-.65-.47-1.21-.97-1.59-.48-.36-1.04-.5-1.58-.39-1.15.23-1.87,1.48-1.61,2.8h0Z"></path></g><g><ellipse class="cls-9" cx="667.51" cy="433.79" rx="9.09" ry="10.21" transform="translate(-71.36 137.46) rotate(-11.17)"></ellipse><path class="cls-2" d="m663.85,434.51c.45,2.27,2.45,3.78,4.46,3.38,2.02-.4,3.29-2.56,2.84-4.82-.45-2.27-2.45-3.78-4.46-3.38-2.02.4-3.29,2.56-2.84,4.82Z"></path><path class="cls-9" d="m667.62,437.22c-1.49,0-2.85-1.17-3.17-2.83h0c-.18-.89-.03-1.79.41-2.54.45-.77,1.16-1.28,1.98-1.44.83-.16,1.67.04,2.38.58.69.52,1.17,1.3,1.34,2.19.37,1.86-.71,3.65-2.39,3.98-.18.04-.37.05-.55.05Zm-.23-5.86c-.12,0-.24.01-.36.04-.54.11-1.01.45-1.32.97-.32.54-.42,1.19-.29,1.84h0c.26,1.32,1.4,2.21,2.55,1.98,1.15-.23,1.87-1.48,1.61-2.8-.13-.65-.47-1.21-.97-1.59-.37-.28-.8-.43-1.22-.43Z"></path></g></g><g><g><polygon class="cls-2" points="136.7 401.46 136.7 362.94 129.31 362.94 129.31 337.84 121.18 337.84 121.18 313.6 124.14 313.6 124.14 306.86 68.54 306.86 68.54 313.6 71.21 313.6 71.21 401.46 136.7 401.46"></polygon><rect class="cls-9" x="71.21" y="313.1" width="49.97" height="1"></rect><rect class="cls-9" x="71.21" y="337.34" width="49.97" height="1"></rect><rect class="cls-9" x="71.21" y="362.45" width="59.27" height="1"></rect><rect class="cls-3" x="107.63" y="321.22" width="10.1" height="5.64" transform="translate(225.37 648.08) rotate(180)"></rect><rect class="cls-3" x="122.15" y="344.97" width="2.66" height="5.64" transform="translate(246.95 695.58) rotate(180)"></rect><rect class="cls-3" x="74.66" y="344.97" width="2.66" height="5.64" transform="translate(151.97 695.58) rotate(180)"></rect><rect class="cls-3" x="93.65" y="344.97" width="2.66" height="5.64" transform="translate(189.96 695.58) rotate(180)"></rect><rect class="cls-3" x="84.15" y="344.97" width="2.66" height="5.64" transform="translate(170.96 695.58) rotate(180)"></rect><rect class="cls-3" x="74.66" y="368.56" width="2.66" height="3.47" transform="translate(151.97 740.59) rotate(180)"></rect><rect class="cls-3" x="77.77" y="393.41" width="5.61" height="8.05" transform="translate(161.16 794.88) rotate(180)"></rect><rect class="cls-3" x="84.15" y="368.56" width="2.66" height="3.47" transform="translate(170.96 740.59) rotate(180)"></rect><rect class="cls-3" x="93.65" y="368.56" width="2.66" height="3.47" transform="translate(189.96 740.59) rotate(180)"></rect><rect class="cls-3" x="103.15" y="368.56" width="2.66" height="3.47" transform="translate(208.96 740.59) rotate(180)"></rect><rect class="cls-3" x="112.65" y="368.56" width="2.66" height="3.47" transform="translate(227.95 740.59) rotate(180)"></rect><rect class="cls-3" x="122.15" y="368.56" width="2.66" height="3.47" transform="translate(246.95 740.59) rotate(180)"></rect><rect class="cls-3" x="112.65" y="344.97" width="2.66" height="5.64" transform="translate(227.95 695.58) rotate(180)"></rect><rect class="cls-3" x="103.15" y="344.97" width="2.66" height="5.64" transform="translate(208.96 695.58) rotate(180)"></rect><rect class="cls-3" x="91.14" y="321.22" width="10.1" height="5.64" transform="translate(192.39 648.08) rotate(180)"></rect><rect class="cls-3" x="74.66" y="321.22" width="10.1" height="5.64" transform="translate(159.42 648.08) rotate(180)"></rect><polygon class="cls-9" points="65.74 401.46 64.74 401.46 64.74 343.85 71.21 343.85 71.21 344.85 65.74 344.85 65.74 401.46"></polygon><polygon class="cls-9" points="98.5 306.86 97.5 306.86 97.5 304.05 78.98 304.05 78.98 306.86 77.98 306.86 77.98 303.05 98.5 303.05 98.5 306.86"></polygon><rect class="cls-9" x="110.63" y="288.05" width="1" height="18.81"></rect><polygon class="cls-9" points="71.71 401.46 70.71 401.46 70.71 314.1 68.04 314.1 68.04 306.36 103.42 306.36 103.42 307.36 69.04 307.36 69.04 313.1 71.71 313.1 71.71 401.46"></polygon></g><g><rect class="cls-2" x="312.43" y="375.41" width="21.54" height="7.31" transform="translate(646.41 758.14) rotate(180)"></rect><polygon class="cls-2" points="317.47 375.41 328.94 375.41 325.14 354.76 317.47 354.76 317.47 375.41"></polygon><rect class="cls-9" x="317.21" y="374.91" width="11.99" height="1"></rect></g><g><rect class="cls-6" x="146.25" y="359.17" width="151.28" height="49.46"></rect><rect class="cls-8" x="247.1" y="359.17" width="50.43" height="16.3" transform="translate(544.63 734.65) rotate(180)"></rect><rect class="cls-8" x="146.25" y="342.88" width="50.43" height="16.3" transform="translate(342.92 702.05) rotate(180)"></rect><rect class="cls-8" x="196.67" y="342.88" width="50.43" height="16.3" transform="translate(443.77 702.05) rotate(180)"></rect><rect class="cls-8" x="95.82" y="391.43" width="50.43" height="16.3" transform="translate(242.07 799.16) rotate(180)"></rect><rect class="cls-6" x="168.26" y="326.56" width="50.43" height="16.3" transform="translate(386.94 669.41) rotate(180)"></rect><rect class="cls-6" x="95.82" y="375.3" width="50.43" height="16.3" transform="translate(242.07 766.91) rotate(180)"></rect><rect class="cls-8" x="146.25" y="375.47" width="50.43" height="15.96" transform="translate(342.92 766.91) rotate(180)"></rect><rect class="cls-9" x="146.25" y="374.97" width="151.28" height="1"></rect><rect class="cls-9" x="146.25" y="359.06" width="100.85" height="1"></rect><rect class="cls-9" x="95.82" y="390.93" width="201.7" height="1"></rect><rect class="cls-9" x="246.6" y="359.17" width="1" height="48.37"></rect><rect class="cls-9" x="196.17" y="342.85" width="1" height="64.69"></rect><rect class="cls-9" x="168.26" y="342.35" width="50.42" height="1"></rect></g><g><path class="cls-3" d="m275.66,390.56l-4.97,4.59c-8.25,7.63-19.08,11.87-30.32,11.87H108.55c-1.47,0-2.8-.9-3.34-2.26l-.55-1.37c-.92-2.3-3.15-3.81-5.62-3.81h-47.97l19.59,44.13h238.77l41.16-60.99h-54.91c-7.42,0-14.57,2.8-20.01,7.83Z"></path><polygon class="cls-8" points="59.65 418.92 62.08 424.39 322.47 424.39 326.16 418.92 59.65 418.92"></polygon><rect class="cls-9" x="244.83" y="406.3" width="65.34" height="1"></rect></g><rect class="cls-9" x="105.14" y="296.14" width="11.97" height="1"></rect><rect class="cls-9" x="105.14" y="298.89" width="11.97" height="1"></rect><rect class="cls-9" x="105.14" y="301.97" width="11.97" height="1"></rect></g><g><path class="cls-3" d="m441.2,190.71l-16.23,40.77c-.67,1.69.18,3.6,1.88,4.23l7.83,2.91c2.24.84,4.76.43,6.63-1.08l41.01-33.02-41.11-13.81Z"></path><path class="cls-2" d="m538.1,192.09l20.38-25.12c2.87-3.44,7.13-1.97,11.96-.02l-2.7,39.68-29.64-14.54Z"></path><polygon class="cls-3" points="538.53 219.96 534.18 227.15 542.31 229.56 558.09 218.47 538.53 219.96"></polygon><path class="cls-2" d="m569.55,216.67c1.76-.32,3.04-1.94,2.83-3.72-.74-6.37-6.69-11.27-16.95-14.94l-130.39-44.59c-14.59-4.31-26.63-3.31-37.51,2.54-10.79.2-15.13,13.24,1.45,18.55l123.95,41.65c14.49,5.67,35.76,4.25,56.62.51Z"></path><path class="cls-9" d="m562.49,201.67c-2.06-1.14-4.49-2.21-7.23-3.19l-17.32-5.92.32-.95,17.33,5.93c2.79,1,5.27,2.09,7.38,3.25l-.48.88Z"></path><g><path class="cls-9" d="m423.84,159.4c-.08,0-.16-.01-.23-.04-.39-.13-.63-.56-.5-.95.13-.39.53-.62.92-.49l.05.02c.39.13.61.55.48.95-.1.32-.4.52-.71.52Z"></path><path class="cls-9" d="m542.1,199.45c-.08,0-.16-.01-.24-.04l-.1-.03c-.39-.13-.6-.56-.47-.95.13-.39.56-.6.95-.47l.1.03c.39.13.6.56.47.95-.11.31-.4.51-.71.51Zm-2.96-1c-.08,0-.16-.01-.24-.04l-.1-.03c-.39-.13-.6-.56-.47-.95.13-.39.56-.6.95-.47l.1.03c.39.13.6.56.47.95-.11.31-.4.51-.71.51Zm-2.96-1c-.08,0-.16-.01-.24-.04l-.1-.03c-.39-.13-.6-.56-.47-.95.13-.39.56-.6.95-.47l.1.03c.39.13.6.56.47.95-.11.31-.4.51-.71.51Zm-2.96-1c-.08,0-.16-.01-.24-.04l-.1-.03c-.39-.13-.6-.56-.47-.95.13-.39.56-.6.95-.47l.1.03c.39.13.6.56.47.95-.11.31-.4.51-.71.51Zm-2.96-1c-.08,0-.16-.01-.24-.04l-.1-.03c-.39-.13-.6-.56-.47-.95.13-.39.56-.6.95-.47l.1.03c.39.13.6.56.47.95-.11.31-.4.51-.71.51Zm-2.96-1c-.08,0-.16-.01-.24-.04l-.1-.03c-.39-.13-.6-.56-.47-.95.13-.39.56-.6.95-.47l.1.03c.39.13.6.56.47.95-.11.31-.4.51-.71.51Zm-2.96-1c-.08,0-.16-.01-.24-.04l-.1-.03c-.39-.13-.6-.56-.47-.95.13-.39.56-.6.95-.47l.1.03c.39.13.6.56.47.95-.11.31-.4.51-.71.51Zm-2.96-1c-.08,0-.16-.01-.24-.04l-.1-.03c-.39-.13-.6-.56-.47-.95.13-.39.56-.6.95-.47l.1.03c.39.13.6.56.47.95-.11.31-.4.51-.71.51Zm-2.96-1c-.08,0-.16-.01-.24-.04l-.1-.03c-.39-.13-.6-.56-.47-.95.13-.39.56-.6.95-.47l.1.03c.39.13.6.56.47.95-.11.31-.4.51-.71.51Zm-2.96-1c-.08,0-.16-.01-.24-.04l-.1-.03c-.39-.13-.6-.56-.47-.95.13-.39.56-.6.95-.47l.1.03c.39.13.6.56.47.95-.11.31-.4.51-.71.51Zm-2.96-1c-.08,0-.16-.01-.24-.04l-.1-.03c-.39-.13-.6-.56-.47-.95.13-.39.56-.6.95-.47l.1.03c.39.13.6.56.47.95-.11.31-.4.51-.71.51Zm-2.96-1c-.08,0-.16-.01-.24-.04l-.1-.03c-.39-.13-.6-.56-.47-.95.13-.39.56-.6.95-.47l.1.03c.39.13.6.56.47.95-.11.31-.4.51-.71.51Zm-2.96-1c-.08,0-.16-.01-.24-.04l-.09-.03c-.39-.13-.6-.56-.47-.95.13-.39.56-.6.95-.47l.09.03c.39.13.6.56.47.95-.11.31-.4.51-.71.51Zm-2.96-1c-.08,0-.16-.01-.24-.04l-.1-.03c-.39-.13-.6-.56-.47-.95.13-.39.56-.6.95-.47l.1.03c.39.13.6.56.47.95-.11.31-.4.51-.71.51Zm-2.96-1c-.08,0-.16-.01-.25-.04l-.09-.03c-.39-.14-.6-.56-.46-.95.14-.39.56-.6.95-.46l.09.03c.39.14.6.56.46.95-.11.31-.4.51-.71.51Zm-2.96-1c-.08,0-.16-.01-.24-.04l-.1-.03c-.39-.13-.6-.56-.47-.95.13-.39.56-.6.95-.47l.1.03c.39.13.6.56.47.95-.11.31-.4.51-.71.51Zm-2.96-1c-.08,0-.16-.01-.25-.04l-.09-.03c-.39-.14-.6-.56-.46-.95.14-.39.57-.6.95-.46l.09.03c.39.14.6.56.46.95-.11.31-.4.51-.71.51Zm-2.96-1c-.08,0-.16-.01-.24-.04l-.1-.03c-.39-.13-.6-.56-.47-.95.13-.39.56-.6.95-.47l.1.03c.39.13.6.56.47.95-.11.31-.4.51-.71.51Zm-2.96-1c-.08,0-.16-.01-.24-.04l-.09-.03c-.39-.13-.6-.56-.47-.95s.56-.6.95-.47l.09.03c.39.13.6.56.47.95-.11.31-.4.51-.71.51Zm-2.96-1c-.08,0-.16-.01-.24-.04l-.1-.03c-.39-.13-.6-.56-.47-.95.13-.39.56-.6.95-.47l.1.03c.39.13.6.56.47.95-.11.31-.4.51-.71.51Zm-2.96-1c-.08,0-.16-.01-.24-.04l-.09-.03c-.39-.13-.6-.56-.47-.95.13-.39.56-.6.95-.47l.09.03c.39.13.6.56.47.95-.11.31-.4.51-.71.51Zm-2.96-1c-.08,0-.16-.01-.24-.04l-.1-.03c-.39-.13-.6-.56-.47-.95.13-.39.56-.6.95-.47l.1.03c.39.13.6.56.47.95-.11.31-.4.51-.71.51Zm-2.96-1c-.08,0-.16-.01-.24-.04l-.09-.03c-.39-.13-.6-.56-.47-.95.13-.39.56-.6.95-.47l.09.03c.39.13.6.56.47.95-.11.31-.4.51-.71.51Zm-2.96-1c-.08,0-.16-.01-.24-.04l-.1-.03c-.39-.13-.6-.56-.47-.95.13-.39.56-.6.95-.47l.1.03c.39.13.6.56.47.95-.11.31-.4.51-.71.51Zm-2.96-1c-.08,0-.16-.01-.24-.04l-.09-.03c-.39-.13-.6-.56-.47-.95.13-.39.56-.6.95-.47l.09.03c.39.13.6.56.47.95-.11.31-.4.51-.71.51Zm-2.96-1c-.08,0-.16-.01-.24-.04l-.1-.03c-.39-.13-.6-.56-.47-.95.13-.39.56-.6.95-.47l.1.03c.39.13.6.56.47.95-.11.31-.4.51-.71.51Zm-2.96-1c-.08,0-.16-.01-.24-.04l-.09-.03c-.39-.13-.6-.56-.47-.95s.56-.6.95-.47l.09.03c.39.13.6.56.47.95-.11.31-.4.51-.71.51Zm-2.96-1c-.08,0-.16-.01-.24-.04l-.1-.03c-.39-.13-.6-.56-.47-.95.13-.39.56-.6.95-.47l.1.03c.39.13.6.56.47.95-.11.31-.4.51-.71.51Zm-2.96-1c-.08,0-.16-.01-.24-.04l-.09-.03c-.39-.13-.6-.56-.47-.95s.56-.6.95-.47l.09.03c.39.13.6.56.47.95-.11.31-.4.51-.71.51Zm-2.96-1c-.08,0-.16-.01-.24-.04l-.1-.03c-.39-.13-.6-.56-.47-.95s.56-.6.95-.47l.1.03c.39.13.6.56.47.95-.11.31-.4.51-.71.51Zm-2.96-1c-.08,0-.16-.01-.24-.04l-.09-.03c-.39-.13-.6-.56-.47-.95.13-.39.56-.6.95-.47l.09.03c.39.13.6.56.47.95-.11.31-.4.51-.71.51Zm-2.96-1c-.08,0-.16-.01-.24-.04l-.1-.03c-.39-.13-.6-.56-.47-.95.13-.39.56-.6.95-.47l.1.03c.39.13.6.56.47.95-.11.31-.4.51-.71.51Zm-2.96-1c-.08,0-.16-.01-.24-.04l-.09-.03c-.39-.13-.6-.56-.47-.95.13-.39.56-.6.95-.47l.09.03c.39.13.6.56.47.95-.11.31-.4.51-.71.51Zm-2.96-1c-.08,0-.16-.01-.24-.04l-.1-.03c-.39-.13-.6-.56-.47-.95.13-.39.56-.6.95-.47l.1.03c.39.13.6.56.47.95-.11.31-.4.51-.71.51Zm-2.96-1c-.08,0-.16-.01-.24-.04l-.09-.03c-.39-.13-.6-.56-.47-.95.13-.39.56-.6.95-.47l.09.03c.39.13.6.56.47.95-.11.31-.4.51-.71.51Zm-2.96-1c-.08,0-.16-.01-.24-.04l-.1-.03c-.39-.13-.6-.56-.47-.95.13-.39.56-.6.95-.47l.1.03c.39.13.6.56.47.95-.11.31-.4.51-.71.51Zm-2.96-1c-.08,0-.16-.01-.24-.04l-.09-.03c-.39-.13-.6-.56-.47-.95.13-.39.56-.6.95-.47l.09.03c.39.13.6.56.47.95-.11.31-.4.51-.71.51Zm-2.96-1c-.08,0-.16-.01-.24-.04l-.1-.03c-.39-.13-.6-.56-.47-.95.13-.39.56-.6.95-.47l.1.03c.39.13.6.56.47.95-.11.31-.4.51-.71.51Zm-2.96-1c-.08,0-.16-.01-.24-.04l-.09-.03c-.39-.13-.6-.56-.47-.95s.56-.6.95-.47l.09.03c.39.13.6.56.47.95-.11.31-.4.51-.71.51Zm-2.96-1c-.08,0-.16-.01-.24-.04l-.1-.03c-.39-.13-.6-.56-.47-.95.13-.39.56-.6.95-.47l.1.03c.39.13.6.56.47.95-.11.31-.4.51-.71.51Z"></path><path class="cls-9" d="m545.01,200.44c-.08,0-.16-.01-.23-.04-.39-.13-.63-.56-.5-.95.13-.39.53-.62.92-.49l.05.02c.39.13.61.55.48.95-.1.32-.4.52-.71.52Z"></path></g><polygon class="cls-3" points="565.65 212.42 545.13 205.02 583.84 190.04 595.76 193.99 565.65 212.42"></polygon><path class="cls-9" d="m387.53,155.96c4.77-.24,10.9.08,15.9,1.01l-1.59-3.18s-4.94-.91-8.27-.53c-2.13.75-4.15,1.65-6.04,2.7Z"></path><path class="cls-3" d="m461.86,176.37l104.06-44.26c2.05-.89,4.36-.94,6.44-.14l10.53,4.03c1.44.55,1.64,2.5.36,3.34l-78.68,51.37-42.7-14.34Z"></path><rect class="cls-9" x="485.84" y="95.74" width="1" height="177.6" transform="translate(155.56 585.98) rotate(-71.29)"></rect><polygon class="cls-6" points="436.46 202.63 450.1 230.47 445.98 233.79 431.94 213.97 436.46 202.63"></polygon><polygon class="cls-6" points="521.41 151.05 560.55 154.16 567.13 149.87 539.32 143.42 521.41 151.05"></polygon><path class="cls-6" d="m547.22,180.85l22.09,2.75,1.16-17.01-4.65-1.45c-3.28-1.02-6.85.13-8.91,2.87l-9.69,12.84Z"></path><polygon class="cls-3" points="547.22 180.85 569.01 188.04 569.31 183.6 549.9 177.29 547.22 180.85"></polygon></g></g><g><path class="cls-5" d="m167.85,180.21c-12.09-25.18-37.87-26.17-46.99-8.53-32.71-7.93-36.48,17.45-36.48,17.45,0,0-19.67-9.96-33.11,5.75h158.42c-12-17.33-28.61-21.74-41.84-14.67Z"></path><path class="cls-5" d="m572.41,78.71c4.8-26.54,43.48-30.21,55.91-9.19,35.02-8.49,40.78,11.69,40.78,11.69,0,0,21.05-10.67,35.45,6.16h-169.6c9.33-13.74,23.31-16.22,37.47-8.65Z"></path><path class="cls-5" d="m121.62,57.57h215.02c-16.37-10.51-33.51-14.89-43.85-7.48-18.96-16.48-34.64-21.92-42.83-11.47-13.15-23.89-38.21-22.68-50.34-.86-3.23-5.25-17.63-14.41-37.99,10.1-6.9-7.8-21.04-3.19-40.01,9.7Z"></path><path class="cls-5" d="m69.8,50.96c9.16-5.96,23.85-11.12,40.33,6.6H41.58c10.67-10.24,21.61-13.03,28.21-6.6Z"></path></g></svg>