<?xml version="1.0" encoding="utf-8"?><svg version="1.1" id="Layer_1" xmlns="http://www.w3.org/2000/svg" xmlns:xlink="http://www.w3.org/1999/xlink" x="0px" y="0px" viewBox="0 0 1566 492" style="enable-background:new 0 0 1566 492;" xml:space="preserve"><style type="text/css">.st0{fill:#28A745;}.st1{fill:#FAF9F9;}.st2{enable-background:new    ;}.st3{fill:#763E1A;}.st4{fill:#FFFFFF;}</style><path class="st0" d="M6,0h1560v492H6V0z"/><path class="st1" d="M0,0h474v492H0V0z"/><path class="st0" d="M417.16,114.76v71.671c0,12.018-14.538,17.909-22.944,9.504l-19.996-19.997L237.847,312.311c-5.249,5.249-13.758,5.249-19.007,0l-12.671-12.671c-5.249-5.249-5.249-13.759,0-19.007l136.374-136.374l-19.994-19.995c-8.44-8.44-2.462-22.944,9.504-22.944h71.667C411.143,101.32,417.16,107.337,417.16,114.76z M322.536,252.965l-8.96,8.96c-2.521,2.521-3.936,5.939-3.936,9.504V352.2h-179.2V173h147.84c3.564,0,6.983-1.416,9.503-3.936l8.96-8.96c8.467-8.467,2.47-22.944-9.503-22.944H121.48c-14.846,0-26.88,12.034-26.88,26.88v197.12c0,14.846,12.034,26.88,26.88,26.88H318.6c14.846,0,26.88-12.034,26.88-26.88v-98.692C345.48,250.494,331.003,244.497,322.536,252.965z"/><g class="st2"><path class="st3" d="M640.4,150.376c0,8.259-1.46,15.499-4.379,21.722c-2.919,6.223-7.097,11.024-12.532,14.404c-5.436,3.381-11.667,5.07-18.697,5.07c-6.953,0-13.157-1.671-18.61-5.013c-5.455-3.342-9.68-8.114-12.676-14.317s-4.514-13.339-4.552-21.405v-4.148c0-8.258,1.488-15.528,4.465-21.808c2.976-6.281,7.182-11.101,12.618-14.463c5.435-3.36,11.647-5.041,18.639-5.041c6.991,0,13.203,1.681,18.639,5.041c5.435,3.362,9.641,8.182,12.618,14.463c2.976,6.279,4.465,13.53,4.465,21.75V150.376z M622.885,146.573c0-8.796-1.576-15.479-4.725-20.051c-3.15-4.57-7.644-6.856-13.482-6.856c-5.8,0-10.276,2.257-13.425,6.77c-3.15,4.515-4.745,11.131-4.782,19.85v4.091c0,8.566,1.575,15.211,4.725,19.936c3.149,4.725,7.682,7.087,13.598,7.087c5.799,0,10.256-2.275,13.367-6.828c3.111-4.551,4.686-11.187,4.725-19.906V146.573z"/><path class="st3" d="M670.246,160.862v29.558h-17.285v-83.891h32.727c6.299,0,11.84,1.152,16.623,3.457s8.46,5.58,11.034,9.824c2.573,4.244,3.86,9.074,3.86,14.49c0,8.221-2.814,14.702-8.441,19.445c-5.627,4.745-13.416,7.116-23.364,7.116H670.246z M670.246,146.861h15.441c4.571,0,8.057-1.075,10.458-3.227c2.4-2.15,3.601-5.224,3.601-9.219c0-4.109-1.21-7.433-3.63-9.968s-5.762-3.841-10.025-3.918h-15.845V146.861z"/><path class="st3" d="M779.546,154.063h-33.188v22.471h38.949v13.886h-56.234v-83.891h56.119v14.001h-38.834v19.993h33.188V154.063z"/><path class="st3" d="M863.667,190.42h-17.285l-33.648-55.197v55.197h-17.285v-83.891h17.285l33.706,55.313v-55.313h17.228V190.42z"/><path class="st3" d="M926.527,190.42h-17.285v-83.891h17.285V190.42z"/><path class="st3" d="M1010.764,190.42h-17.285l-33.648-55.197v55.197h-17.285v-83.891h17.285l33.706,55.313v-55.313h17.228V190.42z"/></g><g class="st2"><path class="st4" d="M687.33,339.647l19.141-93.652h21.448l-28.711,124.414h-20.679l-23.669-90.832l-24.182,90.832h-20.764l-28.711-124.414h21.448l19.312,93.481l23.755-93.481h18.115L687.33,339.647z"/><path class="st4" d="M809.692,341.442H761.5l-10.083,28.967h-22.473l46.997-124.414h19.396l47.083,124.414h-22.559L809.692,341.442z M767.566,324.011h36.06l-18.03-51.611L767.566,324.011z"/><path class="st4" d="M878.138,353.148h56.481v17.261h-78.101V245.996h21.619V353.148z"/><path class="st4" d="M972.815,353.148h56.481v17.261h-78.101V245.996h21.619V353.148z"/><path class="st4" d="M1118.592,314.867h-51.099v38.281h59.729v17.261h-81.348V245.996h80.75v17.431h-59.131v34.351h51.099V314.867z"/><path class="st4" d="M1236.426,263.427h-38.794v106.982h-21.447V263.427h-38.452v-17.431h98.693V263.427z"/></g></svg>