<?xml version="1.0" encoding="UTF-8"?>
<svg id="Layer_1" data-name="Layer 1" xmlns="http://www.w3.org/2000/svg" viewBox="0 0 42.9 42.68">
  <defs>
    <style>
      .cls-1 {
        fill: #41bae3;
      }
    </style>
  </defs>
  <path class="cls-1" d="m14.29,14.16v14.23h-7.15c-1.9,0-3.71-.75-5.05-2.09-1.34-1.34-2.09-3.16-2.09-5.05s.75-3.71,2.09-5.05c1.34-1.34,3.16-2.09,5.05-2.09.24,0,.47.01.7.03h.02l6.43.03h0Z"/>
  <path d="m14.29,14.16v14.23h-7.15c-1.9,0-3.71-.75-5.05-2.09-1.34-1.34-2.09-3.16-2.09-5.05s.75-3.71,2.09-5.05c1.34-1.34,3.16-2.09,5.05-2.09.24,0,.47.01.7.03h.02l6.43.03h0Z"/>
  <path class="cls-1" d="m42.88,21.49c0,1.9-.75,3.71-2.09,5.05s-3.16,2.09-5.05,2.09-3.71-.75-5.05-2.09-2.09-3.16-2.09-5.05v-7.23l7.15.08c.94,0,1.87.18,2.74.54.87.36,1.66.89,2.32,1.55s1.19,1.45,1.55,2.32c.36.87.54,1.8.54,2.74h-.02Z"/>
  <path d="m42.88,21.49c0,1.9-.75,3.71-2.09,5.05s-3.16,2.09-5.05,2.09-3.71-.75-5.05-2.09-2.09-3.16-2.09-5.05v-7.23l7.15.08c.94,0,1.87.18,2.74.54.87.36,1.66.89,2.32,1.55s1.19,1.45,1.55,2.32c.36.87.54,1.8.54,2.74h-.02Z"/>
  <path class="cls-1" d="m28.58,7.03v7.23l-7.15-.08h-.3l-6.85-.03v-7.12c.03-1.88.8-3.66,2.13-4.98,1.34-1.32,3.14-2.05,5.01-2.05s3.68.74,5.01,2.05,2.1,3.1,2.13,4.98h.02Z"/>
  <path class="cls-1" d="m14.29,28.39h7.15c1.41,0,2.79.42,3.96,1.2,1.17.78,2.09,1.89,2.63,3.19s.69,2.73.43,4.11c-.27,1.38-.93,2.66-1.92,3.66s-2.25,1.7-3.63,1.98c-1.38.29-2.81.17-4.12-.36-1.31-.52-2.43-1.42-3.23-2.58-.8-1.16-1.24-2.53-1.26-3.94v-7.27h-.01Z"/>
</svg>