<svg xmlns="http://www.w3.org/2000/svg" id="Layer_1" data-name="Layer 1" viewBox="0 0 195.02 42.68"><defs><style>      .cls-1 {        fill: #41b9e2;      }      .cls-2 {        fill: #41bae3;      }      .cls-3 {        fill: #17414f;      }    </style></defs><path class="cls-2" d="m14.3,14.16v14.23h-7.15c-1.9,0-3.71-.75-5.05-2.09-1.34-1.34-2.09-3.16-2.09-5.05s.75-3.71,2.09-5.05c1.34-1.34,3.16-2.09,5.05-2.09.24,0,.47.01.7.03h.02l6.43.03Z"></path><path d="m14.3,14.16v14.23h-7.15c-1.9,0-3.71-.75-5.05-2.09-1.34-1.34-2.09-3.16-2.09-5.05s.75-3.71,2.09-5.05c1.34-1.34,3.16-2.09,5.05-2.09.24,0,.47.01.7.03h.02l6.43.03Z"></path><path class="cls-2" d="m42.89,21.49c0,1.9-.75,3.71-2.09,5.05-1.34,1.34-3.16,2.09-5.05,2.09s-3.71-.75-5.05-2.09c-1.34-1.34-2.09-3.16-2.09-5.05v-7.23l7.15.08c.94,0,1.87.18,2.74.54.87.36,1.66.89,2.32,1.55.66.66,1.19,1.45,1.55,2.32.36.87.54,1.8.54,2.74Z"></path><path d="m42.89,21.49c0,1.9-.75,3.71-2.09,5.05-1.34,1.34-3.16,2.09-5.05,2.09s-3.71-.75-5.05-2.09c-1.34-1.34-2.09-3.16-2.09-5.05v-7.23l7.15.08c.94,0,1.87.18,2.74.54.87.36,1.66.89,2.32,1.55.66.66,1.19,1.45,1.55,2.32.36.87.54,1.8.54,2.74Z"></path><path class="cls-2" d="m28.59,7.03v7.23l-7.15-.08h-.3l-6.85-.03v-7.12c.03-1.88.8-3.66,2.13-4.98,1.34-1.32,3.14-2.05,5.01-2.05s3.68.74,5.01,2.05,2.1,3.1,2.13,4.98Z"></path><path class="cls-2" d="m14.3,28.39h7.15c1.41,0,2.79.42,3.96,1.2,1.17.78,2.09,1.89,2.63,3.19.54,1.3.69,2.73.43,4.11-.27,1.38-.93,2.66-1.92,3.66-.99,1-2.25,1.7-3.63,1.98-1.38.29-2.81.17-4.12-.36-1.31-.52-2.43-1.42-3.23-2.58-.8-1.16-1.24-2.53-1.26-3.94v-7.27Z"></path><g><path class="cls-1" d="m58.72,12.37v18.9h-4.73V12.37h4.73Zm11.77,0l-7.67,8.86,8.07,10.04h-5.53l-7.97-9.91,7.75-8.99h5.35Z"></path><path class="cls-1" d="m77.62,12.37v12.37c0,.95.25,1.73.76,2.32.5.59,1.26.89,2.27.89s1.79-.3,2.29-.89c.5-.59.76-1.37.76-2.32v-12.37h4.56v12.69c0,1.19-.19,2.22-.58,3.1-.39.88-.93,1.61-1.62,2.17-.69.57-1.5.99-2.43,1.28-.93.29-1.92.43-2.98.43s-2.05-.14-2.97-.43-1.72-.71-2.42-1.28c-.69-.57-1.23-1.29-1.62-2.17-.39-.88-.58-1.92-.58-3.1v-12.69h4.56Z"></path><path class="cls-1" d="m97.09,12.37v18.9h-4.64V12.37h4.64Z"></path><path class="cls-1" d="m106.13,12.37v18.9h-4.72V12.37h4.72Zm11.77,0l-7.67,8.86,8.07,10.04h-5.54l-7.96-9.91,7.75-8.99h5.35Z"></path><path class="cls-3" d="m125.3,12.37v18.9h-4.7V12.37h4.7Zm-1.67,18.9v-4.05h3.56c.72,0,1.42-.09,2.09-.27.67-.18,1.27-.48,1.78-.89.51-.41.92-.97,1.23-1.66.31-.69.46-1.55.46-2.58s-.15-1.88-.46-2.58c-.31-.69-.72-1.25-1.23-1.66-.51-.41-1.11-.71-1.78-.89-.67-.18-1.37-.27-2.09-.27h-3.56v-4.05h3.73c2.07,0,3.86.39,5.37,1.16s2.68,1.86,3.51,3.27c.83,1.4,1.24,3.08,1.24,5.02s-.41,3.6-1.24,5.01-2,2.51-3.51,3.28c-1.51.77-3.3,1.16-5.37,1.16h-3.73Z"></path><path class="cls-3" d="m140.41,17.82c.51-1.21,1.23-2.25,2.15-3.13s2-1.56,3.24-2.04c1.24-.48,2.58-.72,4.02-.72s2.8.24,4.04.72c1.23.48,2.31,1.16,3.23,2.04s1.63,1.93,2.13,3.13c.5,1.21.76,2.54.76,4s-.25,2.8-.74,4.02c-.5,1.22-1.2,2.29-2.11,3.19-.91.9-1.98,1.6-3.23,2.09s-2.6.74-4.08.74-2.86-.25-4.1-.74-2.32-1.19-3.23-2.09c-.91-.9-1.61-1.96-2.11-3.19s-.74-2.57-.74-4.02.26-2.79.77-4Zm4.72,6.95c.44.85,1.06,1.53,1.86,2.01.8.49,1.74.73,2.82.73s1.99-.24,2.79-.73c.8-.49,1.42-1.16,1.86-2.01.44-.86.66-1.84.66-2.96s-.22-2.1-.65-2.96c-.43-.85-1.04-1.53-1.84-2.01s-1.74-.73-2.83-.73-2.02.24-2.82.73-1.42,1.16-1.86,2.01c-.44.85-.66,1.84-.66,2.96s.22,2.1.66,2.96Z"></path><path class="cls-3" d="m166.57,26.41c.48.5,1,.89,1.57,1.16.57.27,1.17.41,1.79.41.67,0,1.21-.17,1.65-.5.43-.33.65-.79.65-1.36,0-.49-.13-.88-.38-1.17-.25-.3-.66-.58-1.21-.85-.56-.27-1.3-.58-2.21-.92-.45-.16-.97-.39-1.55-.68-.58-.29-1.14-.66-1.66-1.12-.52-.46-.95-1.02-1.3-1.67-.34-.66-.51-1.45-.51-2.39,0-1.12.29-2.08.88-2.89s1.38-1.43,2.38-1.85,2.11-.63,3.33-.63,2.35.21,3.28.62c.93.41,1.7.94,2.31,1.57.61.63,1.08,1.27,1.4,1.92l-3.48,1.94c-.27-.45-.58-.84-.93-1.17-.35-.33-.74-.59-1.16-.78-.42-.19-.88-.28-1.36-.28-.65,0-1.14.14-1.49.42s-.51.63-.51,1.04.17.81.5,1.13c.33.32.81.62,1.43.89s1.37.56,2.25.86c.67.25,1.29.54,1.86.88.58.33,1.08.73,1.53,1.2s.79,1.01,1.04,1.62c.25.61.38,1.31.38,2.11,0,.95-.19,1.8-.58,2.55s-.91,1.37-1.57,1.88c-.66.5-1.4.89-2.24,1.15s-1.7.39-2.58.39c-1.22,0-2.36-.22-3.42-.66-1.05-.44-1.97-1.04-2.74-1.8-.77-.76-1.38-1.58-1.81-2.48l3.19-2.29c.38.68.81,1.28,1.28,1.78Z"></path><path class="cls-3" d="m184.79,12.37v18.9h-4.37V12.37h4.37Zm-1.35,0h9.53v3.75h-9.53v-3.75Zm0,7.13h8.99v3.67h-8.99v-3.67Zm0,8.02h9.53v3.75h-9.53v-3.75Z"></path></g></svg>