<svg xmlns="http://www.w3.org/2000/svg" width="46" height="46" viewBox="0 0 46 46" fill="none"><path d="M38.2721 6.11545L27.8359 16.573V0.607239C31.7404 1.48851 35.3415 3.38914 38.2721 6.11545Z" fill="#41BAE3"></path><path d="M44.8825 17.336H30.373L39.917 7.79205C42.3136 10.5292 44.0166 13.8026 44.8825 17.336Z" fill="#41BAE3"></path><path d="M27.8359 29.9754L37.7722 39.9117C34.9345 42.4041 31.5189 44.1479 27.8359 44.9846V29.9754Z" fill="#41BAE3"></path><path d="M29.3145 28.1539H44.8987C43.9752 31.9442 42.0912 35.4328 39.4281 38.2836L29.3145 28.1539Z" fill="#41BAE3"></path><path d="M15.193 17.336H0.683594C1.55416 13.801 3.26281 10.5275 5.66518 7.79205L15.193 17.336Z" fill="#41BAE3"></path><path d="M17.2781 16.1162L7.27734 6.11546C10.0966 3.48729 13.5381 1.61947 17.2781 0.687805V16.1162Z" fill="#41BAE3"></path><path d="M16.2365 28.1539L6.11221 38.2836C3.45297 35.4316 1.57267 31.9431 0.652344 28.1539H16.2365Z" fill="#41BAE3"></path><path d="M17.2764 30.4109V44.8827C13.7573 44.0099 10.499 42.3052 7.77539 39.9119L17.2764 30.4109Z" fill="#41BAE3"></path><path d="M45.5382 22.7853C45.5373 23.7988 45.4708 24.8112 45.3393 25.8161H25.4991V45.3878C23.5432 45.621 21.5654 45.6011 19.6146 45.3287V28.1323H19.5448L19.6254 28.0517V25.7947H0.198869C0.0673915 24.7897 0.000978122 23.7773 3.81978e-05 22.7638C-0.00190027 21.7229 0.0699443 20.6831 0.215006 19.6523H19.6039V0.220409C21.5547 -0.0520661 23.5325 -0.0719261 25.4883 0.161304V19.6523H45.3393C45.48 20.6906 45.5465 21.7376 45.5382 22.7853Z" fill="#41BAE3"></path><path d="M19.5332 28.1538L19.6139 28.0732V28.1538H19.5332Z" fill="#41BAE3"></path></svg>