<svg xmlns="http://www.w3.org/2000/svg" width="46" height="37" viewBox="0 0 46 37" fill="none"><path d="M29.7437 35.7738C29.7463 35.8214 29.7357 35.8689 29.7129 35.9107C29.69 35.9526 29.6559 35.9873 29.6144 36.0109C29.573 36.0344 29.5257 36.046 29.478 36.0441C29.4303 36.0423 29.384 36.0271 29.3444 36.0005C27.649 34.8324 21.5425 29.9431 23.1049 21.1159C25.1503 9.53848 37.3042 2.44122 41.9421 0.124749C42.124 0.0329463 42.3268 -0.00947655 42.5303 0.00177352C42.7337 0.0130236 42.9307 0.0775241 43.1014 0.188824C43.2721 0.300125 43.4107 0.454324 43.503 0.635966C43.5954 0.817607 43.6383 1.02033 43.6277 1.22383C43.4848 4.45211 43.4009 11.1255 44.6972 16.5914C47.2946 27.5231 42.7257 33.7777 33.3612 36.2124C33.3269 36.2211 33.2913 36.2227 33.2563 36.2172C33.2213 36.2116 33.1879 36.1991 33.1579 36.1802C33.1279 36.1613 33.1019 36.1364 33.0818 36.1072C33.0618 36.0781 33.0479 36.0451 33.0409 36.0103C32.7551 34.5613 31.4786 27.4542 32.627 21.6482C32.6318 21.6339 32.6337 21.6189 32.6328 21.6039C32.6318 21.5889 32.6281 21.5742 32.6215 21.5607C32.6148 21.5472 32.6056 21.5351 32.5943 21.5252C32.583 21.5153 32.5698 21.5077 32.5555 21.5028C32.5413 21.498 32.5263 21.496 32.5112 21.4969C32.4962 21.4979 32.4814 21.5018 32.4679 21.5084C32.4544 21.5151 32.4425 21.5243 32.4325 21.5356C32.4226 21.5469 32.415 21.56 32.4102 21.5742C31.5082 23.3633 29.3494 28.4498 29.7437 35.7738Z" fill="#41BAE3"></path><path d="M20.6219 33.9107C20.6541 33.9198 20.683 33.9379 20.7054 33.9628C20.7277 33.9876 20.7425 34.0183 20.7482 34.0513C20.7539 34.0843 20.7502 34.1182 20.7374 34.1492C20.7246 34.1801 20.7033 34.2067 20.676 34.2261C19.4931 35.064 14.7912 37.9226 9.34008 34.7633C2.17874 30.6183 0.419232 20.8793 0.00522379 17.2518C-0.0108838 17.1094 0.0104052 16.9653 0.0670727 16.8337C0.12374 16.7021 0.213684 16.5876 0.328186 16.5015C0.442688 16.4154 0.577828 16.3606 0.719976 16.3427C0.862125 16.3247 1.0064 16.3441 1.13872 16.3991C3.23833 17.2764 7.62971 18.9374 11.5529 19.4007C19.4043 20.3224 22.4404 24.8518 21.7898 31.6139C21.7881 31.6387 21.7812 31.6628 21.7696 31.6847C21.7579 31.7066 21.7419 31.7259 21.7224 31.7412C21.7029 31.7565 21.6805 31.7676 21.6564 31.7737C21.6324 31.7798 21.6073 31.7808 21.5828 31.7766C20.5527 31.6189 15.5503 30.7514 11.9868 28.5927C11.9705 28.5796 11.9496 28.5735 11.9288 28.5758C11.908 28.5781 11.889 28.5886 11.8759 28.6049C11.8628 28.6213 11.8567 28.6422 11.859 28.6629C11.8614 28.6837 11.8718 28.7028 11.8882 28.7159C14.3063 31.167 17.3138 32.9557 20.6219 33.9107Z" fill="#41BAE3"></path></svg>