<svg xmlns="http://www.w3.org/2000/svg" width="36" height="48" viewBox="0 0 36 48" fill="none"><path d="M32.1772 47.9999H3.63954C3.03046 48.0044 2.43016 47.8549 1.89437 47.5652C1.35858 47.2755 0.90458 46.855 0.574871 46.3429C0.245162 45.8307 0.0504699 45.2435 0.00856479 44.6359C-0.0333404 44.0282 0.078995 43.4198 0.33528 42.8672L9.40559 23.251V3.78889H6.80612C6.58214 3.78889 6.36725 3.7003 6.20835 3.54244C6.04946 3.38458 5.95946 3.17026 5.95801 2.94628V0.842602C5.95946 0.61863 6.04946 0.404307 6.20835 0.246448C6.36725 0.0885889 6.58214 -4.72193e-06 6.80612 1.88702e-10H29.0604C29.2834 0.00144355 29.4967 0.0906939 29.6544 0.248398C29.8121 0.406101 29.9014 0.61958 29.9029 0.842602V2.94628C29.9014 3.16931 29.8121 3.38279 29.6544 3.54049C29.4967 3.69819 29.2834 3.78744 29.0604 3.78889H26.4115V23.251L35.4815 42.8672C35.7378 43.4198 35.8504 44.0282 35.8085 44.6359C35.7666 45.2435 35.5716 45.8307 35.2419 46.3429C34.9122 46.855 34.4585 47.2755 33.9227 47.5652C33.3869 47.8549 32.7863 48.0044 32.1772 47.9999Z" fill="#41BAE3"></path><path d="M23.1802 4.04785H12.623V24.4461H23.1802V4.04785Z" fill="white"></path><path d="M13.1289 36.4625L16.2514 39.7667C16.3686 39.8848 16.5081 39.9785 16.6617 40.0424C16.8153 40.1064 16.9799 40.1393 17.1463 40.1393C17.3127 40.1393 17.4775 40.1064 17.6311 40.0424C17.7847 39.9785 17.924 39.8848 18.0412 39.7667L24.5067 32.7452" stroke="white" stroke-width="3" stroke-miterlimit="10" stroke-linecap="round"></path></svg>