<svg xmlns="http://www.w3.org/2000/svg" width="60" height="53" viewBox="0 0 60 53" fill="none"><path d="M29.7776 3.10722C35.7027 3.11459 41.4102 5.34091 45.7753 9.34746C50.1404 13.354 52.8466 18.8502 53.3606 24.753H55.9436C55.4395 18.2091 52.5026 12.0913 47.7117 7.60531C42.9207 3.11933 36.6233 0.590514 30.0604 0.517262C23.4975 0.444009 17.1452 2.83161 12.2553 7.20953C7.36544 11.5875 4.29269 17.6381 3.64264 24.1692H6.22566C6.87593 18.3773 9.63696 13.0279 13.9814 9.14276C18.3259 5.2576 23.9493 3.10893 29.7776 3.10722ZM29.7776 50.4489C23.7778 50.4435 18.0032 48.1629 13.6188 44.0671C9.23446 39.9713 6.56657 34.3652 6.15333 28.3796H3.57031C3.98278 34.9964 6.8833 41.2121 11.6894 45.7786C16.4955 50.3452 22.8514 52.9244 29.4806 52.9983C36.1098 53.0723 42.5216 50.6353 47.4283 46.1771C52.335 41.7188 55.3734 35.5692 55.9333 28.9633H53.3503C52.7988 34.8355 50.0777 40.2911 45.7186 44.2643C41.3595 48.2374 35.6757 50.4426 29.7776 50.4489Z" fill="#41BAE3"></path><path d="M49.3493 33.2924C49.1455 33.2891 48.9455 33.2372 48.7658 33.1411C48.5861 33.0449 48.4319 32.9073 48.3161 32.7396C48.1202 32.4587 48.0439 32.1115 48.104 31.7744C48.1641 31.4373 48.3556 31.1378 48.6364 30.9418L53.7714 27.3618C53.9103 27.2607 54.068 27.1882 54.2352 27.1488C54.4024 27.1093 54.5759 27.1036 54.7453 27.132C54.9148 27.1604 55.0769 27.2223 55.2221 27.3141C55.3673 27.406 55.4927 27.5259 55.591 27.6668C55.6893 27.8077 55.7585 27.9668 55.7946 28.1348C55.8306 28.3028 55.8327 28.4764 55.8009 28.6453C55.769 28.8141 55.7038 28.9749 55.609 29.1182C55.5142 29.2615 55.3918 29.3844 55.2489 29.4798L50.1139 33.0598C49.8897 33.2156 49.6222 33.297 49.3493 33.2924Z" fill="#41BAE3"></path><path d="M58.1046 34.7699C57.8966 34.7699 57.6918 34.7196 57.5074 34.6234C57.323 34.5271 57.1646 34.3879 57.0456 34.2172L53.4759 29.1131C53.3785 28.9741 53.3095 28.8171 53.2728 28.6514C53.2361 28.4857 53.2324 28.3143 53.2619 28.1472C53.2914 27.98 53.3535 27.8203 53.4447 27.6771C53.536 27.5339 53.6545 27.4101 53.7936 27.3127C53.9326 27.2154 54.0895 27.1464 54.2553 27.1097C54.421 27.0729 54.5924 27.0693 54.7595 27.0988C54.9267 27.1283 55.0865 27.1905 55.2296 27.2817C55.3728 27.3729 55.4966 27.4915 55.594 27.6305L59.1637 32.7397C59.2975 32.9315 59.3767 33.156 59.3929 33.3894C59.4091 33.6227 59.3616 33.8561 59.2555 34.0645C59.1494 34.273 58.9887 34.4487 58.7906 34.5729C58.5924 34.6972 58.3643 34.7652 58.1305 34.7699H58.1046Z" fill="#41BAE3"></path><path d="M5.1187 25.6569C4.8408 25.6567 4.57039 25.5669 4.34761 25.4008C4.12483 25.2346 3.96156 25.0011 3.88208 24.7348C3.8026 24.4685 3.81112 24.1837 3.90639 23.9226C4.00167 23.6615 4.17863 23.4382 4.41095 23.2857L9.64932 19.8555C9.79145 19.7625 9.95049 19.6984 10.1174 19.6669C10.2842 19.6354 10.4557 19.6372 10.6219 19.672C10.7881 19.7067 10.9459 19.774 11.0861 19.8697C11.2264 19.9655 11.3464 20.0878 11.4393 20.2299C11.5323 20.3721 11.5963 20.5311 11.6278 20.698C11.6593 20.8649 11.6576 21.0364 11.6228 21.2026C11.588 21.3688 11.5209 21.5265 11.4251 21.6667C11.3294 21.807 11.2069 21.9271 11.0648 22.02L5.82127 25.445C5.6134 25.584 5.36876 25.6579 5.1187 25.6569Z" fill="#41BAE3"></path><path d="M5.04241 25.657C4.82805 25.6574 4.61703 25.6041 4.42846 25.5021C4.2399 25.4002 4.0798 25.2527 3.96272 25.0732L0.542805 19.8659C0.449523 19.7241 0.385067 19.5653 0.353146 19.3986C0.321225 19.2319 0.322441 19.0606 0.356741 18.8944C0.39104 18.7282 0.457755 18.5703 0.553053 18.4299C0.648351 18.2894 0.770371 18.1691 0.912159 18.0758C1.05395 17.9825 1.21272 17.9181 1.37942 17.8861C1.54611 17.8542 1.71747 17.8555 1.88369 17.8898C2.04991 17.9241 2.20773 17.9907 2.34818 18.086C2.48862 18.1813 2.60892 18.3035 2.70221 18.4452L6.12212 23.6577C6.24971 23.8525 6.32228 24.0781 6.33215 24.3108C6.34202 24.5434 6.28882 24.7744 6.17818 24.9792C6.06755 25.1841 5.90357 25.3552 5.70364 25.4745C5.50371 25.5938 5.27524 25.6569 5.04241 25.657Z" fill="#41BAE3"></path><path d="M16.6602 18.8791L19.4498 17.4998L29.2653 12.649C29.4138 12.5753 29.5773 12.5369 29.7431 12.5369C29.9089 12.5369 30.0725 12.5753 30.221 12.649C31.6675 13.3516 33.2793 14.1006 34.7361 14.8084L33.7907 15.325L21.9863 21.364C21.918 21.4061 21.8393 21.4284 21.759 21.4284C21.6788 21.4284 21.6001 21.4061 21.5317 21.364C19.9819 20.5891 18.4321 19.8142 16.8823 19.0652C16.7938 19.0228 16.7174 18.9588 16.6602 18.8791Z" fill="#41BAE3"></path><path d="M28.8008 27.5272C28.8008 32.0045 28.8008 36.4817 28.8008 40.9589C28.8008 40.9848 28.8008 41.0107 28.8008 41.0468C28.6975 41.0727 28.6303 41.0003 28.5528 40.9589L16.2731 34.5428C16.0511 34.4462 15.8638 34.2841 15.7364 34.0782C15.609 33.8724 15.5475 33.6325 15.5602 33.3907C15.5602 29.2786 15.5602 25.1698 15.5602 21.0645V20.7701L18.1432 22.0513L20.6333 23.2704C20.7185 23.2983 20.7917 23.3545 20.8405 23.4297C20.8894 23.5049 20.9111 23.5945 20.9019 23.6837C20.9019 25.1251 20.9019 26.5664 20.9019 28.0078C20.8913 28.2273 20.9492 28.4447 21.0677 28.6298C21.1862 28.8149 21.3594 28.9587 21.5632 29.041C21.7459 29.13 21.9516 29.1602 22.1523 29.1279C22.3529 29.0955 22.5387 29.002 22.6842 28.8601C22.8033 28.756 22.8969 28.626 22.9578 28.48C23.0187 28.334 23.0453 28.176 23.0355 28.0181C23.0355 26.8558 23.0355 25.6934 23.0355 24.5259C23.1646 24.5259 23.2525 24.5878 23.3455 24.6343L28.5735 27.2173C28.6403 27.2367 28.6987 27.2776 28.7398 27.3336C28.781 27.3897 28.8024 27.4577 28.8008 27.5272Z" fill="#41BAE3"></path><path d="M41.9122 19.4685L30.1078 25.3215C30.0293 25.3669 29.9402 25.3908 29.8495 25.3908C29.7588 25.3908 29.6697 25.3669 29.5912 25.3215C27.9071 24.4795 26.2229 23.653 24.5388 22.8161L24.1875 22.6301L25.4532 21.9843C29.2761 20.0281 33.1007 18.0702 36.927 16.1106C36.9997 16.0674 37.0826 16.0445 37.1672 16.0445C37.2517 16.0445 37.3347 16.0674 37.4074 16.1106C39.1897 16.9991 40.972 17.8721 42.7594 18.7504L43.0384 18.895L41.9122 19.4685Z" fill="#41BAE3"></path><path d="M44.1305 20.8112V32.6931C44.1334 32.7067 44.1334 32.7208 44.1305 32.7344V33.8761C44.131 33.9644 44.1071 34.0512 44.0616 34.1268C44.016 34.2025 43.9505 34.2641 43.8722 34.3049L43.2419 34.6355C39.2124 36.7329 35.1846 38.8355 31.1586 40.9432H31.1224C31.1001 40.9538 31.0754 40.9586 31.0507 40.957C31.0261 40.9553 31.0022 40.9474 30.9815 40.9339C30.9608 40.9204 30.9439 40.9019 30.9323 40.88C30.9208 40.8582 30.9151 40.8336 30.9157 40.8089C30.9157 36.3868 30.9157 31.9612 30.9157 27.5322C30.9049 27.4615 30.9185 27.3893 30.9541 27.3274C30.9898 27.2654 31.0455 27.2174 31.112 27.1913C35.3757 25.0939 39.636 22.9913 43.8928 20.8836L43.9961 20.8474C44.0323 20.806 44.084 20.806 44.1305 20.8112Z" fill="#41BAE3"></path></svg>