<svg xmlns="http://www.w3.org/2000/svg" width="52" height="51" viewBox="0 0 52 51" fill="none"><path d="M46.5277 26.5166V36.6628C46.5277 38.1443 45.8099 38.8792 44.3342 38.8792C38.9999 38.8792 33.6656 38.8792 28.3312 38.8792C28.1831 38.8941 28.0338 38.8649 27.9021 38.7955C27.7703 38.726 27.662 38.6194 27.5905 38.4888C26.3543 36.5011 24.4284 35.0393 22.1815 34.3831C22.0372 34.3564 21.9087 34.2755 21.8222 34.157C21.7357 34.0385 21.6978 33.8914 21.7164 33.7458C21.7164 27.889 21.7164 22.0321 21.7164 16.1752C21.6904 15.8997 21.725 15.6219 21.8178 15.3613C21.9106 15.1006 22.0594 14.8634 22.2537 14.6664C22.4479 14.4694 22.683 14.3173 22.9424 14.2209C23.2017 14.1244 23.479 14.086 23.7548 14.1082C26.2124 14.1082 28.6643 14.1082 31.1219 14.1082C31.5927 14.1082 31.6961 14.2517 31.6961 14.6824C31.6961 16.1293 31.6961 17.5533 31.6961 19.029C31.6853 19.6829 31.9344 20.3144 32.3887 20.7848C32.843 21.2552 33.4653 21.5262 34.1192 21.5383C34.4478 21.5391 34.7733 21.4742 35.0766 21.3476C35.3798 21.221 35.6548 21.0353 35.8853 20.8011C36.1158 20.5668 36.2972 20.2889 36.4189 19.9836C36.5406 19.6784 36.6001 19.3518 36.594 19.0232C36.594 17.5533 36.594 16.0833 36.594 14.6134C36.594 14.2057 36.6974 14.1024 37.105 14.1082C39.5798 14.1082 42.0489 14.1082 44.5237 14.1082C44.7951 14.0867 45.0679 14.1242 45.3235 14.2181C45.579 14.3119 45.8113 14.4598 46.0043 14.6518C46.1974 14.8438 46.3467 15.0751 46.442 15.3302C46.5372 15.5852 46.5763 15.8578 46.5564 16.1294C46.5411 19.5937 46.5315 23.0561 46.5277 26.5166Z" fill="#41BAE3"></path><path d="M19.8978 50.1961C23.7601 50.1961 26.8912 47.0651 26.8912 43.2027C26.8912 39.3403 23.7601 36.2092 19.8978 36.2092C16.0354 36.2092 12.9043 39.3403 12.9043 43.2027C12.9043 47.0651 16.0354 50.1961 19.8978 50.1961Z" fill="#41BAE3"></path><path d="M49.7611 49.5938C49.5466 49.5982 49.3335 49.5577 49.1357 49.4746C48.9379 49.3915 48.7597 49.2678 48.6127 49.1115L43.6286 43.8059C43.6158 43.7911 43.5999 43.7792 43.5821 43.7713C43.5642 43.7633 43.5448 43.7594 43.5252 43.7599H21.1313C20.3942 43.758 19.6801 43.5024 19.1092 43.036C18.5382 42.5696 18.1452 41.921 17.9962 41.199L10.2273 3.47396C10.2209 3.44142 10.204 3.41183 10.179 3.38999C10.1541 3.36816 10.1225 3.35535 10.0894 3.3534L1.47642 3.05481C1.07177 3.03983 0.689478 2.86533 0.412999 2.56948C0.13652 2.27364 -0.0116886 1.88049 0.000720961 1.47575C0.012694 1.07921 0.179057 0.702959 0.464369 0.427301C0.74968 0.151642 1.13137 -0.00166416 1.52809 1.36273e-05L10.2043 0.29861C10.9235 0.321995 11.6137 0.587682 12.163 1.05253C12.7122 1.51738 13.0883 2.1541 13.2303 2.85953L20.9935 40.5846C21.0012 40.617 21.0195 40.6459 21.0455 40.6667C21.0716 40.6875 21.1038 40.699 21.1371 40.6994H43.531C43.9685 40.7019 44.401 40.7926 44.8026 40.9663C45.2041 41.14 45.5665 41.3929 45.868 41.71L50.8521 47.0156C51.1281 47.313 51.2765 47.7068 51.2655 48.1124C51.26 48.3135 51.2145 48.5115 51.1317 48.6949C51.0489 48.8783 50.9304 49.0433 50.7831 49.1804C50.5052 49.4397 50.1411 49.5869 49.7611 49.5938Z" fill="#41BAE3"></path></svg>