<svg xmlns="http://www.w3.org/2000/svg" width="107" height="21" viewBox="0 0 107 21" fill="none">
<path d="M9.08155 2.63274C9.42863 1.82678 10.5714 1.82678 10.9185 2.63274L12.469 6.23316C12.6137 6.56934 12.9306 6.79956 13.2951 6.83336L17.1984 7.19538C18.0722 7.27642 18.4253 8.36323 17.766 8.94239L14.821 11.5296C14.546 11.7712 14.4249 12.1437 14.5054 12.5007L15.3673 16.3249C15.5602 17.1809 14.6357 17.8526 13.8812 17.4046L10.5106 15.4032C10.1958 15.2163 9.80416 15.2163 9.48944 15.4032L6.11879 17.4046C5.36426 17.8526 4.43976 17.1809 4.6327 16.3249L5.49459 12.5007C5.57506 12.1437 5.45403 11.7712 5.17904 11.5296L2.23398 8.94239C1.57471 8.36323 1.92784 7.27642 2.80161 7.19538L6.70494 6.83336C7.0694 6.79956 7.38627 6.56934 7.53105 6.23316L9.08155 2.63274Z" fill="#FFC12B"></path>
<path d="M31.0815 2.63274C31.4286 1.82678 32.5714 1.82678 32.9185 2.63274L34.469 6.23316C34.6137 6.56934 34.9306 6.79956 35.2951 6.83336L39.1984 7.19538C40.0722 7.27642 40.4253 8.36323 39.766 8.94239L36.821 11.5296C36.546 11.7712 36.4249 12.1437 36.5054 12.5007L37.3673 16.3249C37.5602 17.1809 36.6357 17.8526 35.8812 17.4046L32.5106 15.4032C32.1958 15.2163 31.8042 15.2163 31.4894 15.4032L28.1188 17.4046C27.3643 17.8526 26.4398 17.1809 26.6327 16.3249L27.4946 12.5007C27.5751 12.1437 27.454 11.7712 27.179 11.5296L24.234 8.94239C23.5747 8.36323 23.9278 7.27642 24.8016 7.19538L28.7049 6.83336C29.0694 6.79956 29.3863 6.56934 29.531 6.23316L31.0815 2.63274Z" fill="#FFC12B"></path>
<path d="M52.5745 2.76231C52.9134 1.93385 54.0866 1.93385 54.4255 2.76231L55.8403 6.22049C55.9807 6.56373 56.2996 6.80107 56.6687 6.83711L60.3172 7.1933C61.1762 7.27717 61.5326 8.33679 60.8989 8.92277L58.0743 11.5348C57.815 11.7745 57.7014 12.1331 57.7754 12.4784L58.5896 16.2814C58.7746 17.1451 57.8308 17.8069 57.0818 17.3387L54.03 15.4313C53.7057 15.2286 53.2943 15.2286 52.97 15.4313L49.9182 17.3387C49.1692 17.8069 48.2254 17.1451 48.4104 16.2814L49.2246 12.4784C49.2986 12.1331 49.185 11.7745 48.9257 11.5348L46.1011 8.92277C45.4674 8.33679 45.8238 7.27717 46.6828 7.1933L50.3313 6.83711C50.7004 6.80107 51.0193 6.56373 51.1597 6.22049L52.5745 2.76231Z" fill="#FFC12B"></path>
<path d="M74.0815 2.63274C74.4286 1.82678 75.5714 1.82678 75.9185 2.63274L77.469 6.23316C77.6137 6.56934 77.9306 6.79956 78.2951 6.83336L82.1984 7.19538C83.0722 7.27642 83.4253 8.36323 82.766 8.94239L79.821 11.5296C79.546 11.7712 79.4249 12.1437 79.5054 12.5007L80.3673 16.3249C80.5602 17.1809 79.6357 17.8526 78.8812 17.4046L75.5106 15.4032C75.1958 15.2163 74.8042 15.2163 74.4894 15.4032L71.1188 17.4046C70.3643 17.8526 69.4398 17.1809 69.6327 16.3249L70.4946 12.5007C70.5751 12.1437 70.454 11.7712 70.179 11.5296L67.234 8.94239C66.5747 8.36323 66.9278 7.27642 67.8016 7.19538L71.7049 6.83336C72.0694 6.79956 72.3863 6.56934 72.531 6.23316L74.0815 2.63274Z" fill="#FFC12B"></path>
<path d="M96.0815 2.63274C96.4286 1.82678 97.5714 1.82678 97.9185 2.63274L99.469 6.23316C99.6137 6.56934 99.9306 6.79956 100.295 6.83336L104.198 7.19538C105.072 7.27642 105.425 8.36323 104.766 8.94239L101.821 11.5296C101.546 11.7712 101.425 12.1437 101.505 12.5007L102.367 16.3249C102.56 17.1809 101.636 17.8526 100.881 17.4046L97.5106 15.4032C97.1958 15.2163 96.8042 15.2163 96.4894 15.4032L93.1188 17.4046C92.3643 17.8526 91.4398 17.1809 91.6327 16.3249L92.4946 12.5007C92.5751 12.1437 92.454 11.7712 92.179 11.5296L89.234 8.94239C88.5747 8.36323 88.9278 7.27642 89.8016 7.19538L93.7049 6.83336C94.0694 6.79956 94.3863 6.56934 94.531 6.23316L96.0815 2.63274Z" fill="#FFC12B"></path>
</svg>